<svg width="475" height="475" viewBox="0 0 475 475" fill="none" xmlns="http://www.w3.org/2000/svg">
<g clip-path="url(#clip0_1_2)">
<path d="M154.672 0.296879C153.447 0.519559 152.186 0.742239 151.109 1.48438C146.768 4.41598 145.803 10.502 148.734 14.8438L169.219 45.4219C137.564 62.1954 113.963 90.0645 106.281 123.5H368.719C361.037 90.0645 337.436 62.1954 305.781 45.4219L326.266 14.8438C329.197 10.502 328.232 4.41598 323.891 1.48438C319.512 -1.44723 313.463 -0.185531 310.531 4.15625L287.969 37.4063C272.309 31.6914 255.312 28.5 237.5 28.5C219.688 28.5 202.691 31.6914 187.031 37.4063L164.469 4.15625C162.279 0.890629 158.309 -0.408211 154.672 0.296879ZM185.25 76C193.117 76 199.5 82.3829 199.5 90.25C199.5 98.1543 193.117 104.5 185.25 104.5C177.346 104.5 171 98.1543 171 90.25C171 82.3829 177.346 76 185.25 76ZM289.75 76C297.654 76 304 82.3829 304 90.25C304 98.1543 297.654 104.5 289.75 104.5C281.883 104.5 275.5 98.1543 275.5 90.25C275.5 82.3829 281.883 76 289.75 76ZM76 142.5C60.2656 142.5 47.5 155.266 47.5 171V304C47.5 319.734 60.2656 332.5 76 332.5C79.3398 332.5 82.5312 331.795 85.5 330.719V144.281C82.5312 143.205 79.3398 142.5 76 142.5ZM399 142.5C395.66 142.5 392.469 143.205 389.5 144.281V330.719C392.469 331.758 395.66 332.5 399 332.5C414.734 332.5 427.5 319.734 427.5 304V171C427.5 155.266 414.734 142.5 399 142.5Z" fill="#7DD400"/>
<path d="M104.5 351.5V142.5H370.5V351.5C370.5 367.197 357.697 380 342 380H133C117.303 380 104.5 367.197 104.5 351.5Z" fill="#7DD400"/>
<path d="M104.5 351.5V142.5H370.5V351.5C370.5 367.197 357.697 380 342 380H133C117.303 380 104.5 367.197 104.5 351.5Z" fill="white"/>
<path d="M142.5 437V399H218.5V437C218.5 457.967 201.467 475 180.5 475C159.533 475 142.5 457.967 142.5 437Z" fill="#7DD400"/>
<path d="M256.5 437V399H332.5V437C332.5 457.967 315.467 475 294.5 475C273.533 475 256.5 457.967 256.5 437Z" fill="#7DD400"/>
<path d="M47.5 168.207C47.5 154.212 60.7656 142 76.5 142C79.8398 142 83.0312 142.627 86 143.584V309.416C83.0312 310.373 79.8398 311 76.5 311C60.7656 311 47.5 299.995 47.5 286V168.207Z" fill="#7DD400"/>
<path d="M47.5 168.207C47.5 154.212 60.7656 142 76.5 142C79.8398 142 83.0312 142.627 86 143.584V309.416C83.0312 310.373 79.8398 311 76.5 311C60.7656 311 47.5 299.995 47.5 286V168.207Z" fill="black"/>
<path d="M389.5 144.074C392.469 143.117 396.16 142 399.5 142C415.234 142 427.5 153.698 427.5 167.694V286C427.5 299.995 415.234 311 399.5 311C396.16 311 392.469 310.424 389.5 309.5V144.074Z" fill="#7DD400"/>
<path d="M389.5 144.074C392.469 143.117 396.16 142 399.5 142C415.234 142 427.5 153.698 427.5 167.694V286C427.5 299.995 415.234 311 399.5 311C396.16 311 392.469 310.424 389.5 309.5V144.074Z" fill="black"/>
<path d="M142.5 427.635V399H218.5V427.5C218.5 443.225 200.967 456 180 456C159.033 456 142.5 443.36 142.5 427.635Z" fill="#7DD400"/>
<path d="M142.5 427.635V399H218.5V427.5C218.5 443.225 200.967 456 180 456C159.033 456 142.5 443.36 142.5 427.635Z" fill="black"/>
<path d="M256.5 427.5V399H332.5V427.5C332.5 443.225 315.967 456 295 456C274.033 456 256.5 443.225 256.5 427.5Z" fill="#7DD400"/>
<path d="M256.5 427.5V399H332.5V427.5C332.5 443.225 315.967 456 295 456C274.033 456 256.5 443.225 256.5 427.5Z" fill="black"/>
<path d="M201.712 191.836L227.371 181.327V281.17C227.371 285.494 231.906 289 237.5 289C243.093 289 247.629 285.494 247.629 281.17V181.017L273.263 191.764C276.838 193.264 281.31 192.303 283.369 189.59C286.752 185.131 291 177.909 291 169.761C291 161.609 286.753 154.386 283.37 149.926C281.31 147.21 276.842 146.251 273.263 147.752L237.993 162.544L201.712 147.68C198.147 146.22 193.723 147.184 191.677 149.872C188.285 154.327 184 161.576 184 169.761C184 177.942 188.286 185.189 191.677 189.644C193.726 192.335 198.143 193.298 201.712 191.836Z" fill="black"/>
<path d="M370.5 142.5H322C322 142.5 317.24 142.197 315.149 143.151C313.058 144.105 311.483 145.794 310.786 147.829L244.81 340.534C243.97 342.989 241.475 344.66 238.652 344.66C235.83 344.66 233.335 342.988 232.495 340.534L166.477 147.733C165.785 145.715 164.229 144.036 162.161 143.077C160.812 142.453 155.5 142.5 155.5 142.5L104.5 142.5C104.5 142.5 104.5 162.015 104.5 167.5V352.5C104.5 364.5 115 380 131.197 380H343C359 380 370.5 365 370.5 353V167.337C370.5 161.91 370.5 142.881 370.5 142.5ZM357.688 244.737C357.688 247.494 355.235 249.728 352.209 249.728H300.113C297.087 249.728 294.635 247.494 294.635 244.737V234.495C294.635 231.738 297.087 229.503 300.113 229.503C300.113 229.503 331.864 229.503 352.209 229.503C355.235 229.503 357.688 231.738 357.688 234.495V244.737Z" fill="black"/>
</g>
<defs>
<clipPath id="clip0_1_2">
<rect width="475" height="475" fill="white"/>
</clipPath>
</defs>
</svg>
