<svg width="842" height="777" viewBox="0 0 842 777" fill="none" xmlns="http://www.w3.org/2000/svg">
<path d="M390.673 61.5156C398.613 40.0701 408.457 19.2762 420.788 0C442.731 34.5307 457.239 73.4432 465.651 113.385C468.626 128.262 471.113 143.285 472.228 158.411C458.105 183.775 446.032 210.366 437.2 238.045C429.371 261.866 424.106 286.476 420.779 311.317C414.014 257.596 395.946 205.555 369.356 158.471C372.083 125.415 379.388 92.7108 390.673 61.5156Z" fill="white"/>
<path d="M582.011 182.952C595.996 136.194 601.776 86.5542 595.525 37.9951C568.18 55.4877 543.861 77.4907 522.742 102.092C495.294 134.153 473.299 170.75 457.067 209.68C433.95 265.339 422.485 326.512 428.565 386.715C456.064 346.311 492.704 312.578 533.709 286.201C534.746 285.601 535.604 284.761 536.178 283.715C555.849 252.365 571.301 218.375 582.011 182.952Z" fill="white"/>
<path d="M707.796 117.985C667.649 126.98 629.628 144.318 595.312 166.861C585.845 205.079 570.745 241.891 550.946 275.916C584.233 256.691 620.17 241.977 657.445 232.579C680.76 197.748 698.595 158.955 707.796 117.985Z" fill="white"/>
<path d="M787.67 231.497C751.501 226.763 714.621 228.924 678.89 235.956C632.26 245.294 587.423 263.138 546.769 287.765C501.177 315.564 460.49 352.41 431.515 397.496C472.58 402.796 514.494 399.417 554.692 389.865C591.273 381.11 626.541 367.099 659.391 348.826C710.317 320.255 755.952 280.836 787.67 231.497Z" fill="white"/>
<path d="M259.659 182.952C245.674 136.194 239.894 86.5542 246.145 37.9951C273.49 55.4877 297.809 77.4907 318.928 102.092C346.376 134.153 368.371 170.75 384.603 209.68C407.72 265.339 419.185 326.512 413.105 386.715C385.606 346.311 348.966 312.578 307.961 286.201C306.924 285.601 306.066 284.761 305.492 283.715C285.821 252.365 270.369 218.375 259.659 182.952Z" fill="white"/>
<path d="M133.874 117.985C174.021 126.98 212.042 144.318 246.358 166.861C255.825 205.079 270.925 241.891 290.724 275.916C257.437 256.691 221.5 241.977 184.225 232.579C160.91 197.748 143.075 158.955 133.874 117.985Z" fill="white"/>
<path d="M54 231.497C90.1685 226.763 127.049 228.924 162.78 235.956C209.41 245.294 254.247 263.138 294.901 287.765C340.493 315.564 381.18 352.41 410.155 397.496C369.09 402.796 327.176 399.417 286.977 389.865C250.397 381.11 215.129 367.099 182.279 348.826C131.353 320.255 85.7182 280.836 54 231.497Z" fill="white"/>
<path d="M14 717H76.9C91.1 717 101.867 713.067 109.2 705.2C116.533 697.333 120.2 687 120.2 674.2C120.2 666.933 118.4 660.333 114.8 654.4C111.267 648.467 106.033 644.033 99.1 641.1C103.567 638.433 107.067 634.667 109.6 629.8C112.2 624.867 113.5 619.133 113.5 612.6C113.5 606.133 111.967 599.867 108.9 593.8C105.9 587.733 101.267 582.767 95 578.9C88.8 574.967 80.8333 573 71.1 573H14V717ZM38.4 630.5V595.5H70.8C76.5333 595.5 81 597.167 84.2 600.5C87.4 603.833 89 608 89 613C89 618.733 87.2333 623.1 83.7 626.1C80.2333 629.033 75.9333 630.5 70.8 630.5H38.4ZM38.4 694.3V653H74.6C81.3333 653 86.5667 654.967 90.3 658.9C94.0333 662.833 95.9 667.7 95.9 673.5C95.9 679.9 93.8 684.967 89.6 688.7C85.4667 692.433 80.2333 694.3 73.9 694.3H38.4ZM134.172 717H158.272V570H134.172V717ZM182.227 592.6H206.327V570.5H182.227V592.6ZM182.227 717H206.327V609H182.227V717ZM269.981 720C283.915 720 294.815 716.9 302.681 710.7C310.615 704.5 314.581 695.967 314.581 685.1C314.581 676.7 311.915 670.1 306.581 665.3C301.315 660.5 292.215 656.433 279.281 653.1C270.881 650.967 264.548 649.167 260.281 647.7C256.081 646.233 253.281 644.767 251.881 643.3C250.481 641.833 249.781 640.067 249.781 638C249.781 634.4 251.515 631.6 254.981 629.6C258.448 627.533 263.015 626.633 268.681 626.9C274.548 627.233 279.248 628.733 282.781 631.4C286.381 634.067 288.515 637.7 289.181 642.3L313.781 637.9C312.448 628.167 307.681 620.433 299.481 614.7C291.281 608.9 280.881 606 268.281 606C255.415 606 245.115 609 237.381 615C229.648 621 225.781 629.067 225.781 639.2C225.781 647.267 228.481 653.633 233.881 658.3C239.348 662.967 248.848 667.067 262.381 670.6C270.515 672.733 276.515 674.533 280.381 676C284.315 677.4 286.881 678.833 288.081 680.3C289.281 681.767 289.881 683.733 289.881 686.2C289.881 690.2 288.281 693.367 285.081 695.7C281.881 697.967 277.415 699.1 271.681 699.1C265.081 699.1 259.581 697.567 255.181 694.5C250.848 691.433 248.081 687.233 246.881 681.9L222.281 685.7C224.081 696.567 229.148 705 237.481 711C245.815 717 256.648 720 269.981 720ZM370.184 720C384.118 720 395.018 716.9 402.884 710.7C410.818 704.5 414.784 695.967 414.784 685.1C414.784 676.7 412.118 670.1 406.784 665.3C401.518 660.5 392.418 656.433 379.484 653.1C371.084 650.967 364.751 649.167 360.484 647.7C356.284 646.233 353.484 644.767 352.084 643.3C350.684 641.833 349.984 640.067 349.984 638C349.984 634.4 351.718 631.6 355.184 629.6C358.651 627.533 363.218 626.633 368.884 626.9C374.751 627.233 379.451 628.733 382.984 631.4C386.584 634.067 388.718 637.7 389.384 642.3L413.984 637.9C412.651 628.167 407.884 620.433 399.684 614.7C391.484 608.9 381.084 606 368.484 606C355.618 606 345.318 609 337.584 615C329.851 621 325.984 629.067 325.984 639.2C325.984 647.267 328.684 653.633 334.084 658.3C339.551 662.967 349.051 667.067 362.584 670.6C370.718 672.733 376.718 674.533 380.584 676C384.518 677.4 387.084 678.833 388.284 680.3C389.484 681.767 390.084 683.733 390.084 686.2C390.084 690.2 388.484 693.367 385.284 695.7C382.084 697.967 377.618 699.1 371.884 699.1C365.284 699.1 359.784 697.567 355.384 694.5C351.051 691.433 348.284 687.233 347.084 681.9L322.484 685.7C324.284 696.567 329.351 705 337.684 711C346.018 717 356.851 720 370.184 720ZM430.688 717H518.388V694.4H454.788V573H430.688V717ZM557.528 720C566.128 720 573.428 718.6 579.428 715.8C585.495 712.933 590.828 708.5 595.428 702.5V717H616.528V650.7C616.528 646.033 616.328 641.733 615.928 637.8C615.528 633.8 614.361 629.9 612.428 626.1C608.895 618.967 603.461 613.833 596.128 610.7C588.861 607.567 580.428 606 570.828 606C558.161 606 548.061 608.767 540.528 614.3C532.995 619.833 527.895 627.167 525.228 636.3L547.228 643.2C549.028 637.667 552.195 633.767 556.728 631.5C561.261 629.233 565.961 628.1 570.828 628.1C578.161 628.1 583.561 629.6 587.028 632.6C590.495 635.533 592.461 640.1 592.928 646.3C583.461 647.7 574.661 649.067 566.528 650.4C558.461 651.667 551.595 653.233 545.928 655.1C537.395 658.033 531.161 662.2 527.228 667.6C523.295 672.933 521.328 679.533 521.328 687.4C521.328 693.333 522.695 698.767 525.428 703.7C528.228 708.633 532.328 712.6 537.728 715.6C543.128 718.533 549.728 720 557.528 720ZM562.328 700.8C556.661 700.8 552.328 699.5 549.328 696.9C546.395 694.3 544.928 691.033 544.928 687.1C544.928 683.567 546.061 680.7 548.328 678.5C550.661 676.3 553.895 674.433 558.028 672.9C561.828 671.633 566.395 670.533 571.728 669.6C577.061 668.6 584.028 667.433 592.628 666.1C592.561 668.633 592.395 671.467 592.128 674.6C591.861 677.667 591.228 680.433 590.228 682.9C589.428 685.367 587.861 688 585.528 690.8C583.261 693.6 580.195 695.967 576.328 697.9C572.461 699.833 567.795 700.8 562.328 700.8ZM634.363 717H655.663V709C659.529 712.467 664.029 715.167 669.163 717.1C674.296 719.033 680.063 720 686.463 720C696.463 720 705.129 717.5 712.463 712.5C719.863 707.5 725.596 700.7 729.663 692.1C733.729 683.5 735.763 673.8 735.763 663C735.763 652.067 733.696 642.3 729.563 633.7C725.496 625.1 719.696 618.333 712.163 613.4C704.629 608.467 695.763 606 685.563 606C680.163 606 675.229 606.733 670.763 608.2C666.296 609.6 662.263 611.633 658.663 614.3V573H634.363V717ZM682.763 698.4C673.096 698.4 666.163 695.133 661.963 688.6C657.763 682 655.663 673.467 655.663 663C655.663 652.467 657.729 643.933 661.863 637.4C666.063 630.867 672.763 627.6 681.963 627.6C688.429 627.6 693.729 629.2 697.863 632.4C702.063 635.533 705.163 639.8 707.163 645.2C709.229 650.533 710.263 656.467 710.263 663C710.263 669.6 709.263 675.567 707.263 680.9C705.329 686.233 702.329 690.5 698.263 693.7C694.196 696.833 689.029 698.4 682.763 698.4ZM788.966 720C802.899 720 813.799 716.9 821.666 710.7C829.599 704.5 833.566 695.967 833.566 685.1C833.566 676.7 830.899 670.1 825.566 665.3C820.299 660.5 811.199 656.433 798.266 653.1C789.866 650.967 783.532 649.167 779.266 647.7C775.066 646.233 772.266 644.767 770.866 643.3C769.466 641.833 768.766 640.067 768.766 638C768.766 634.4 770.499 631.6 773.966 629.6C777.432 627.533 781.999 626.633 787.666 626.9C793.532 627.233 798.232 628.733 801.766 631.4C805.366 634.067 807.499 637.7 808.166 642.3L832.766 637.9C831.432 628.167 826.666 620.433 818.466 614.7C810.266 608.9 799.866 606 787.266 606C774.399 606 764.099 609 756.366 615C748.632 621 744.766 629.067 744.766 639.2C744.766 647.267 747.466 653.633 752.866 658.3C758.332 662.967 767.832 667.067 781.366 670.6C789.499 672.733 795.499 674.533 799.366 676C803.299 677.4 805.866 678.833 807.066 680.3C808.266 681.767 808.866 683.733 808.866 686.2C808.866 690.2 807.266 693.367 804.066 695.7C800.866 697.967 796.399 699.1 790.666 699.1C784.066 699.1 778.566 697.567 774.166 694.5C769.832 691.433 767.066 687.233 765.866 681.9L741.266 685.7C743.066 696.567 748.132 705 756.466 711C764.799 717 775.632 720 788.966 720Z" fill="white"/>
</svg>
