<?xml version="1.0" encoding="UTF-8" standalone="no"?>
<!DOCTYPE svg PUBLIC "-//W3C//DTD SVG 1.1//EN" "http://www.w3.org/Graphics/SVG/1.1/DTD/svg11.dtd">
<svg width="100%" height="100%" viewBox="0 0 1020 228" version="1.1" xmlns="http://www.w3.org/2000/svg" xmlns:xlink="http://www.w3.org/1999/xlink" xml:space="preserve" xmlns:serif="http://www.serif.com/" style="fill-rule:evenodd;clip-rule:evenodd;stroke-linejoin:round;stroke-miterlimit:1.41421;">
    <g transform="matrix(1,0,0,1,-192.765,0.005)">
        <path d="M503.74,97.02C505.3,82.03 509.07,66.82 517.92,54.36C525.18,63.58 529.76,74.68 531.84,86.19C532.55,90.46 534.08,95.09 532.11,99.23C528.92,106.74 525.14,114.04 523.14,121.99C520.21,130.06 519.09,138.59 517.43,146.98C515.27,134.45 512.65,121.89 507.6,110.17C505.96,105.92 503.21,101.77 503.74,97.02Z" style="fill:rgb(0,166,233);fill-rule:nonzero;"/>
    </g>
    <g transform="matrix(1,0,0,1,-192.765,0.005)">
        <path d="M480.1,128.05C475.96,110.06 476.03,91.26 479.51,73.16C496.7,88.34 507.08,109.98 512.17,132.06C515.34,144.99 515.98,158.32 516.37,171.57C512.69,166.91 508.92,162.32 505.41,157.52C498.95,148.49 490.99,140.69 483.26,132.77C481.97,131.38 480.55,129.95 480.1,128.05Z" style="fill:rgb(0,166,233);fill-rule:nonzero;"/>
    </g>
    <g transform="matrix(1,0,0,1,-192.765,0.005)">
        <path d="M537.98,93.99C543.03,86.51 548.21,78.97 555.26,73.19C558.51,90.53 559.09,108.62 555.23,125.91C554.56,131.09 549.84,134.03 546.65,137.65C536.14,147.81 527.86,159.93 518.96,171.45C519,163.25 518.6,154.99 519.81,146.84C522.48,128.31 528.17,110.02 537.98,93.99Z" style="fill:rgb(0,166,233);fill-rule:nonzero;"/>
    </g>
    <g transform="matrix(1,0,0,1,-192.765,0.005)">
        <path d="M445.28,77.61C454.99,81.44 463.24,88.05 470.51,95.42C472.23,97.32 474.94,98.97 474.72,101.9C475.17,110.3 475.9,118.68 477.18,127C471.02,122.22 464.6,117.77 457.78,113.96C455.58,112.73 453.15,111.4 452.11,108.97C447.84,99.09 445.24,88.41 445.28,77.61Z" style="fill:rgb(0,166,233);fill-rule:nonzero;"/>
    </g>
    <g transform="matrix(1,0,0,1,-192.765,0.005)">
        <path d="M561.34,98.41C569.18,89.53 578.78,82.17 589.63,77.36C589.44,89.05 586.76,100.88 581.19,111.19C573.23,116.3 565,121.06 557.61,127.03C558.74,119.4 559.66,111.73 559.87,104.01C559.95,102.08 559.84,99.88 561.34,98.41Z" style="fill:rgb(0,166,233);fill-rule:nonzero;"/>
    </g>
    <g transform="matrix(1,0,0,1,-192.765,0.005)">
        <path d="M422.9,105.18C429.32,106.57 435.91,107.35 442.11,109.62C460.13,115.85 475.65,127.64 488.64,141.39C498.42,151.1 506.13,162.59 514.31,173.63C496.74,172.74 478.94,169.76 462.94,162.17C451.67,156.89 444.18,146.44 438.07,136C432.03,126.23 427.63,115.6 422.9,105.18Z" style="fill:rgb(0,166,233);fill-rule:nonzero;"/>
    </g>
    <g transform="matrix(1,0,0,1,-192.765,0.005)">
        <path d="M595.01,108.81C600.52,107.06 606.27,106.33 611.93,105.21C604.56,122.44 596.29,139.63 583.84,153.82C574.55,162.67 561.97,166.83 549.75,169.74C540.15,171.9 530.37,173.01 520.56,173.63C531.26,157.7 543.62,142.8 558,130.06C568.85,120.73 581.35,113.18 595.01,108.81Z" style="fill:rgb(0,166,233);fill-rule:nonzero;"/>
    </g>
    <g transform="matrix(1,0,0,1,472.544,151.213)">
        <path d="M32.13,1.632C28.458,1.632 25.109,0.85 22.083,-0.714C19.057,-2.278 16.728,-4.352 15.096,-6.936L14.688,-6.936L14.688,0L5.712,0L5.712,-73.032L15.096,-73.032L15.096,-49.98L14.688,-43.044L15.096,-43.044C16.728,-45.628 19.057,-47.702 22.083,-49.266C25.109,-50.83 28.458,-51.612 32.13,-51.612C38.726,-51.612 44.302,-49.028 48.858,-43.86C53.55,-38.624 55.896,-32.334 55.896,-24.99C55.896,-17.578 53.55,-11.288 48.858,-6.12C44.302,-0.952 38.726,1.632 32.13,1.632ZM30.6,-6.936C35.088,-6.936 38.862,-8.636 41.922,-12.036C44.982,-15.368 46.512,-19.686 46.512,-24.99C46.512,-30.226 44.982,-34.544 41.922,-37.944C38.862,-41.344 35.088,-43.044 30.6,-43.044C26.044,-43.044 22.236,-41.344 19.176,-37.944C16.184,-34.544 14.688,-30.226 14.688,-24.99C14.688,-19.686 16.184,-15.334 19.176,-11.934C22.236,-8.602 26.044,-6.936 30.6,-6.936Z" style="fill-rule:nonzero;"/>
    </g>
    <g transform="matrix(1,0,0,1,530.786,151.213)">
        <rect x="5.712" y="-73.032" width="9.384" height="73.032" style="fill-rule:nonzero;"/>
    </g>
    <g transform="matrix(1,0,0,1,530.786,151.213)">
        <path d="M38.658,-67.218C38.658,-65.382 38.012,-63.818 36.72,-62.526C35.428,-61.234 33.864,-60.588 32.028,-60.588C30.192,-60.588 28.628,-61.234 27.336,-62.526C26.044,-63.818 25.398,-65.382 25.398,-67.218C25.398,-69.054 26.044,-70.618 27.336,-71.91C28.628,-73.202 30.192,-73.848 32.028,-73.848C33.864,-73.848 35.428,-73.202 36.72,-71.91C38.012,-70.618 38.658,-69.054 38.658,-67.218ZM36.72,-49.98L36.72,0L27.336,0L27.336,-49.98L36.72,-49.98Z" style="fill-rule:nonzero;"/>
    </g>
    <g transform="matrix(1,0,0,1,530.786,151.213)">
        <path d="M87.21,-13.872C87.21,-9.52 85.306,-5.848 81.498,-2.856C77.69,0.136 72.896,1.632 67.116,1.632C62.084,1.632 57.664,0.323 53.856,-2.295C50.048,-4.913 47.328,-8.364 45.696,-12.648L54.06,-16.218C55.284,-13.226 57.069,-10.897 59.415,-9.231C61.761,-7.565 64.328,-6.732 67.116,-6.732C70.108,-6.732 72.607,-7.378 74.613,-8.67C76.619,-9.962 77.622,-11.492 77.622,-13.26C77.622,-16.456 75.174,-18.802 70.278,-20.298L61.71,-22.44C51.986,-24.888 47.124,-29.58 47.124,-36.516C47.124,-41.072 48.977,-44.727 52.683,-47.481C56.389,-50.235 61.132,-51.612 66.912,-51.612C71.332,-51.612 75.327,-50.558 78.897,-48.45C82.467,-46.342 84.966,-43.52 86.394,-39.984L78.03,-36.516C77.078,-38.624 75.531,-40.273 73.389,-41.463C71.247,-42.653 68.85,-43.248 66.198,-43.248C63.75,-43.248 61.557,-42.636 59.619,-41.412C57.681,-40.188 56.712,-38.692 56.712,-36.924C56.712,-34.068 59.398,-32.028 64.77,-30.804L72.318,-28.866C82.246,-26.418 87.21,-21.42 87.21,-13.872Z" style="fill-rule:nonzero;"/>
    </g>
    <g transform="matrix(1,0,0,1,530.786,151.213)">
        <path d="M133.62,-13.872C133.62,-9.52 131.716,-5.848 127.908,-2.856C124.1,0.136 119.306,1.632 113.526,1.632C108.494,1.632 104.074,0.323 100.266,-2.295C96.458,-4.913 93.738,-8.364 92.106,-12.648L100.47,-16.218C101.694,-13.226 103.479,-10.897 105.825,-9.231C108.171,-7.565 110.738,-6.732 113.526,-6.732C116.518,-6.732 119.017,-7.378 121.023,-8.67C123.029,-9.962 124.032,-11.492 124.032,-13.26C124.032,-16.456 121.584,-18.802 116.688,-20.298L108.12,-22.44C98.396,-24.888 93.534,-29.58 93.534,-36.516C93.534,-41.072 95.387,-44.727 99.093,-47.481C102.799,-50.235 107.542,-51.612 113.322,-51.612C117.742,-51.612 121.737,-50.558 125.307,-48.45C128.877,-46.342 131.376,-43.52 132.804,-39.984L124.44,-36.516C123.488,-38.624 121.941,-40.273 119.799,-41.463C117.657,-42.653 115.26,-43.248 112.608,-43.248C110.16,-43.248 107.967,-42.636 106.029,-41.412C104.091,-40.188 103.122,-38.692 103.122,-36.924C103.122,-34.068 105.808,-32.028 111.18,-30.804L118.728,-28.866C128.656,-26.418 133.62,-21.42 133.62,-13.872Z" style="fill-rule:nonzero;"/>
    </g>
    <g transform="matrix(1,0,0,1,530.786,151.213)">
        <path d="M161.364,-24.99C161.364,-32.674 163.778,-39.032 168.606,-44.064C173.502,-49.096 179.656,-51.612 187.068,-51.612C194.48,-51.612 200.6,-49.096 205.428,-44.064C210.324,-39.032 212.772,-32.674 212.772,-24.99C212.772,-17.238 210.324,-10.88 205.428,-5.916C200.6,-0.884 194.48,1.632 187.068,1.632C179.656,1.632 173.502,-0.884 168.606,-5.916C163.778,-10.948 161.364,-17.306 161.364,-24.99ZM170.748,-24.99C170.748,-19.618 172.312,-15.266 175.44,-11.934C178.568,-8.602 182.444,-6.936 187.068,-6.936C191.692,-6.936 195.568,-8.602 198.696,-11.934C201.824,-15.266 203.388,-19.618 203.388,-24.99C203.388,-30.294 201.824,-34.612 198.696,-37.944C195.5,-41.344 191.624,-43.044 187.068,-43.044C182.512,-43.044 178.636,-41.344 175.44,-37.944C172.312,-34.612 170.748,-30.294 170.748,-24.99Z" style="fill-rule:nonzero;"/>
    </g>
    <g transform="matrix(1,0,0,1,745.904,151.213)">
        <path d="M43.962,-13.872C43.962,-9.52 42.058,-5.848 38.25,-2.856C34.442,0.136 29.648,1.632 23.868,1.632C18.836,1.632 14.416,0.323 10.608,-2.295C6.8,-4.913 4.08,-8.364 2.448,-12.648L10.812,-16.218C12.036,-13.226 13.821,-10.897 16.167,-9.231C18.513,-7.565 21.08,-6.732 23.868,-6.732C26.86,-6.732 29.359,-7.378 31.365,-8.67C33.371,-9.962 34.374,-11.492 34.374,-13.26C34.374,-16.456 31.926,-18.802 27.03,-20.298L18.462,-22.44C8.738,-24.888 3.876,-29.58 3.876,-36.516C3.876,-41.072 5.729,-44.727 9.435,-47.481C13.141,-50.235 17.884,-51.612 23.664,-51.612C28.084,-51.612 32.079,-50.558 35.649,-48.45C39.219,-46.342 41.718,-43.52 43.146,-39.984L34.782,-36.516C33.83,-38.624 32.283,-40.273 30.141,-41.463C27.999,-42.653 25.602,-43.248 22.95,-43.248C20.502,-43.248 18.309,-42.636 16.371,-41.412C14.433,-40.188 13.464,-38.692 13.464,-36.924C13.464,-34.068 16.15,-32.028 21.522,-30.804L29.07,-28.866C38.998,-26.418 43.962,-21.42 43.962,-13.872Z" style="fill-rule:nonzero;"/>
    </g>
</svg>
