<?xml version="1.0" encoding="utf-8"?>
<!-- Generator: Adobe Illustrator 22.1.0, SVG Export Plug-In . SVG Version: 6.00 Build 0)  -->
<svg version="1.0" id="Layer_1" xmlns:serif="http://www.serif.com/"
	 xmlns="http://www.w3.org/2000/svg" xmlns:xlink="http://www.w3.org/1999/xlink" x="0px" y="0px" viewBox="0 0 703.6 345"
	 style="enable-background:new 0 0 703.6 345;" xml:space="preserve">
<style type="text/css">
	.st0{enable-background:new    ;}
	.st1{fill:#848484;}
	.st2{fill:#00A8EC;}
	.st3{fill:#FFFFFF;}
	.st4{fill:#E0E0EE;}
</style>
<g transform="matrix(1,0,0,1,-140.452,-33.9963)">
	<g class="st0">
		<path class="st1" d="M187.4,340c-5,0-9.5-1.1-13.5-3.2c-4.1-2.1-7.2-4.9-9.4-8.4h-0.5v9.4h-12.1v-98.5h12.7v31.1l-0.5,9.4h0.5
			c2.2-3.5,5.3-6.3,9.4-8.4c4.1-2.1,8.6-3.2,13.5-3.2c8.9,0,16.4,3.5,22.6,10.5c6.3,7.1,9.5,15.5,9.5,25.4c0,10-3.2,18.5-9.5,25.4
			C203.8,336.5,196.3,340,187.4,340z M185.3,328.5c6.1,0,11.1-2.3,15.3-6.9c4.1-4.5,6.2-10.3,6.2-17.5c0-7.1-2.1-12.9-6.2-17.5
			c-4.1-4.6-9.2-6.9-15.3-6.9c-6.1,0-11.3,2.3-15.4,6.9c-4,4.6-6.1,10.4-6.1,17.5c0,7.2,2,13,6.1,17.6
			C174,326.2,179.2,328.5,185.3,328.5z"/>
		<path class="st1" d="M227.1,304.1c0-10.4,3.3-18.9,9.8-25.7c6.6-6.8,14.9-10.2,24.9-10.2c10,0,18.2,3.4,24.8,10.2
			c6.6,6.8,9.9,15.4,9.9,25.7c0,10.5-3.3,19-9.9,25.7c-6.5,6.8-14.8,10.2-24.8,10.2c-10,0-18.3-3.4-24.9-10.2
			C230.4,323.1,227.1,314.5,227.1,304.1z M239.8,304.1c0,7.2,2.1,13.1,6.3,17.6c4.2,4.5,9.4,6.7,15.7,6.7c6.2,0,11.5-2.2,15.7-6.7
			c4.2-4.5,6.3-10.4,6.3-17.6c0-7.2-2.1-13-6.3-17.5c-4.3-4.6-9.5-6.9-15.7-6.9c-6.1,0-11.4,2.3-15.7,6.9
			C241.9,291.2,239.8,297,239.8,304.1z"/>
	</g>
	<g class="st0">
		<path class="st1" d="M319.3,337.8h-12.7v-67.4h12.1v11h0.5c1.3-3.6,3.9-6.6,7.9-9.1c4-2.5,7.9-3.8,11.8-3.8c3.7,0,6.8,0.5,9.4,1.7
			l-3.9,12.2c-1.6-0.6-4-1-7.4-1c-4.8,0-8.9,1.9-12.4,5.8c-3.5,3.9-5.3,8.3-5.3,13.5V337.8z"/>
	</g>
	<g>
		<path class="st1" d="M372.9,247.2c0,2.5-0.9,4.6-2.6,6.3c-1.7,1.7-3.9,2.6-6.3,2.6c-2.5,0-4.6-0.9-6.3-2.6
			c-1.7-1.7-2.6-3.9-2.6-6.3c0-2.5,0.9-4.6,2.6-6.3c1.7-1.7,3.9-2.6,6.3-2.6c2.5,0,4.6,0.9,6.3,2.6
			C372,242.6,372.9,244.7,372.9,247.2z M370.3,270.4v67.4h-12.7v-67.4H370.3z"/>
		<path class="st1" d="M386.8,270.4h12.1v9.4h0.5c1.9-3.3,4.9-6.1,8.9-8.3s8.1-3.3,12.4-3.3c8.3,0,14.6,2.4,19,7.1
			c4.4,4.7,6.7,11.4,6.7,20.1v42.4h-12.7v-41.5c-0.3-11-5.8-16.5-16.6-16.5c-5,0-9.3,2-12.7,6.1c-3.4,4.1-5.1,9-5.1,14.6v37.3h-12.7
			V270.4z"/>
	</g>
	<g class="st0">
		<path class="st1" d="M490.5,369.7c-3.8,0-7.3-0.5-10.6-1.4c-3.3-1-6.3-2.3-9-4.1c-2.7-1.7-5-3.8-6.9-6.2c-1.9-2.4-3.4-5-4.4-8
			l12-5c1.4,3.9,3.8,7.1,7.2,9.5c3.4,2.4,7.3,3.6,11.8,3.6c6.9,0,12.2-2.1,16.1-6.2c3.8-4.1,5.8-9.8,5.8-17.1v-6.5h-0.6
			c-2.4,3.6-5.6,6.4-9.7,8.5c-4.1,2.1-8.5,3.1-13.3,3.1c-8.8,0-16.4-3.4-22.7-10.3c-6.2-7.1-9.4-15.6-9.4-25.6
			c0-10,3.1-18.5,9.4-25.4c6.3-7,13.9-10.5,22.7-10.5c4.8,0,9.2,1,13.3,3.1c4.1,2.1,7.3,4.9,9.7,8.5h0.6v-9.4h12.1v64.5
			c0,10.8-3.1,19.3-9.2,25.4C509,366.6,500.7,369.7,490.5,369.7z M490.9,328.5c6.2,0,11.3-2.2,15.3-6.7c4.1-4.5,6.2-10.4,6.2-17.6
			c0-7.1-2.1-12.9-6.2-17.5c-4-4.6-9.1-6.9-15.3-6.9c-6.1,0-11.1,2.3-15.3,6.9c-4.1,4.6-6.2,10.4-6.2,17.5c0,7.2,2.1,13,6.2,17.5
			C479.7,326.2,484.8,328.5,490.9,328.5z"/>
	</g>
	<g class="st0">
		<path class="st1" d="M567.3,340c-8.8,0-16.4-3.5-22.7-10.5c-6.2-7.1-9.4-15.5-9.4-25.4c0-9.9,3.1-18.4,9.4-25.4
			c6.3-7,13.9-10.5,22.7-10.5c5,0,9.5,1.1,13.5,3.2c4.1,2.1,7.2,4.9,9.4,8.4h0.5l-0.5-9.4v-31.1h12.7v98.5h-12.1v-9.4h-0.5
			c-2.2,3.5-5.3,6.3-9.4,8.4C576.8,339,572.3,340,567.3,340z M569.4,328.5c6.2,0,11.3-2.2,15.3-6.7c4.1-4.5,6.2-10.4,6.2-17.6
			c0-7.1-2.1-12.9-6.2-17.5c-4-4.6-9.1-6.9-15.3-6.9c-6.1,0-11.1,2.3-15.3,6.9c-4.1,4.6-6.2,10.4-6.2,17.5c0,7.2,2.1,13,6.2,17.5
			C558.3,326.2,563.3,328.5,569.4,328.5z"/>
	</g>
	<g class="st0">
		<path class="st1" d="M631,337.8h-12.7v-67.4h12.1v11h0.5c1.3-3.6,3.9-6.6,7.9-9.1c4-2.5,7.9-3.8,11.8-3.8c3.7,0,6.8,0.5,9.4,1.7
			l-3.9,12.2c-1.6-0.6-4-1-7.4-1c-4.8,0-8.9,1.9-12.4,5.8c-3.5,3.9-5.3,8.3-5.3,13.5V337.8z"/>
	</g>
	<g class="st0">
		<path class="st1" d="M660.3,304.1c0-10.4,3.3-18.9,9.8-25.7c6.6-6.8,14.9-10.2,24.9-10.2c10,0,18.2,3.4,24.8,10.2
			c6.6,6.8,9.9,15.4,9.9,25.7c0,10.5-3.3,19-9.9,25.7c-6.5,6.8-14.8,10.2-24.8,10.2c-10,0-18.3-3.4-24.9-10.2
			C663.5,323.1,660.3,314.5,660.3,304.1z M672.9,304.1c0,7.2,2.1,13.1,6.3,17.6c4.2,4.5,9.4,6.7,15.7,6.7c6.2,0,11.5-2.2,15.7-6.7
			c4.2-4.5,6.3-10.4,6.3-17.6c0-7.2-2.1-13-6.3-17.5c-4.3-4.6-9.5-6.9-15.7-6.9c-6.1,0-11.4,2.3-15.7,6.9
			C675,291.2,672.9,297,672.9,304.1z"/>
	</g>
	<g class="st0">
		<path class="st1" d="M756.1,247.2c0,2.5-0.9,4.6-2.6,6.3c-1.7,1.7-3.8,2.6-6.3,2.6s-4.6-0.9-6.3-2.6c-1.7-1.7-2.6-3.9-2.6-6.3
			c0-2.5,0.9-4.6,2.6-6.3c1.7-1.7,3.8-2.6,6.3-2.6s4.6,0.9,6.3,2.6C755.3,242.6,756.1,244.7,756.1,247.2z M753.5,270.4v67.4h-12.7
			v-67.4H753.5z"/>
	</g>
	<g class="st0">
		<path class="st1" d="M797.5,340c-8.8,0-16.4-3.5-22.7-10.5c-6.2-7.1-9.4-15.5-9.4-25.4c0-9.9,3.1-18.4,9.4-25.4
			c6.3-7,13.9-10.5,22.7-10.5c5,0,9.5,1.1,13.5,3.2c4.1,2.1,7.2,4.9,9.4,8.4h0.6l-0.6-9.4v-31.1h12.7v98.5H821v-9.4h-0.6
			c-2.2,3.5-5.3,6.3-9.4,8.4C807,339,802.5,340,797.5,340z M799.6,328.5c6.2,0,11.3-2.2,15.3-6.7c4.1-4.5,6.2-10.4,6.2-17.6
			c0-7.1-2.1-12.9-6.2-17.5c-4-4.6-9.1-6.9-15.3-6.9c-6.1,0-11.1,2.3-15.3,6.9c-4.1,4.6-6.2,10.4-6.2,17.5c0,7.2,2.1,13,6.2,17.5
			C788.4,326.2,793.5,328.5,799.6,328.5z"/>
	</g>
</g>
<g id="Ebene1">
	<path class="st2" d="M275.4,219.2c-23.2-20.9-37.7-51.2-37.7-84.8c0-63.1,51.2-114.3,114.3-114.3s114.3,51.2,114.3,114.3
		c0,33.6-14.6,63.9-37.7,84.8H275.4z"/>
	<g transform="matrix(1,0,0,1,-5.68434e-14,-35.8903)">
		<path class="st3" d="M275.8,255.5c2.2-6.1,8-10.4,14.9-10.4c17.2,0,40.4,0,40.4,0v-10.1h-28.5c-14.7,0-28.6-11.9-28.6-26.6v-11.3
			h-6.6c-4.4,0-7.9-3.5-7.9-7.9c0-4.6,0-10.4,0-15c0-4.1,3.2-7.5,7.3-7.9V118c-4.2-1.2-7.3-5-7.3-9.6c0-5.5,4.5-10,10-10
			c5.5,0,10,4.5,10,10c0,4.6-3.1,8.4-7.3,9.6v48.4h1.9v-11.3c0-14.7,11.9-26.6,26.6-26.6H347v-10.4c-3.8-1.5-6.5-5.2-6.5-9.5
			c0-5.6,4.6-10.2,10.2-10.2c5.6,0,10.2,4.6,10.2,10.2c0,4.3-2.7,8-6.5,9.5v10.4h46.4c14.7,0,26.6,11.9,26.6,26.6v11.3h4.5V118
			c-4.2-1.2-7.3-5-7.3-9.6c0-5.5,4.5-10,10-10c5.5,0,10,4.5,10,10c0,4.6-3.1,8.4-7.3,9.6v49.1c2.7,1.2,4.6,4,4.6,7.2
			c0,4.6,0,10.4,0,15c0,4.4-3.5,7.9-7.9,7.9h-6.6v11.3c0,14.7-11.9,26.6-26.6,26.6h-30.5v10.1h42.4c6.8,0,12.6,4.3,14.9,10.4H275.8z
			 M401.8,168c0-4.9-1.9-9.6-5.4-13c-3.5-3.5-8.1-5.4-13-5.4c-18.7,0-47.5,0-66.1,0c-4.9,0-9.6,1.9-13,5.4c-3.5,3.5-5.4,8.1-5.4,13
			c0,8.6,0,18.7,0,27.3c0,4.9,1.9,9.6,5.4,13c3.5,3.5,8.1,5.4,13,5.4c18.7,0,47.5,0,66.1,0c4.9,0,9.6-1.9,13-5.4s5.4-8.1,5.4-13
			C401.8,186.7,401.8,176.5,401.8,168z M326.1,174.3c4.1,0,7.5,3.4,7.5,7.5c0,4.1-3.4,7.5-7.5,7.5c-4.1,0-7.5-3.4-7.5-7.5
			C318.6,177.7,322,174.3,326.1,174.3z M375.1,174.3c4.1,0,7.5,3.4,7.5,7.5c0,4.1-3.4,7.5-7.5,7.5c-4.1,0-7.5-3.4-7.5-7.5
			C367.6,177.7,371,174.3,375.1,174.3z"/>
	</g>
	<g transform="matrix(1,0,0,1,-5.68434e-14,2.10965)">
		<path class="st4" d="M370.2,207H331v-9.8h39.2V207z M273.9,159.2h-6.6c-4.4,0-7.9-3.5-7.9-7.9c0-4.6,0-10.4,0-15
			c0-4.1,3.2-7.5,7.3-7.9V80c-4.2-1.2-7.3-5-7.3-9.6c0-5.5,4.5-10,10-10c5.5,0,10,4.5,10,10c0,4.6-3.1,8.4-7.3,9.6v48.4h1.8V159.2z
			 M427.6,128.5h4.2V80c-4.2-1.2-7.3-5-7.3-9.6c0-5.5,4.5-10,10-10c5.5,0,10,4.5,10,10c0,4.6-3.1,8.4-7.3,9.6v49.1
			c2.7,1.2,4.6,4,4.6,7.2c0,4.6,0,10.4,0,15c0,4.4-3.5,7.9-7.9,7.9h-6.3V128.5z"/>
	</g>
</g>
</svg>
