<?xml version="1.0" encoding="utf-8"?>
<!-- Generator: Adobe Illustrator 19.1.0, SVG Export Plug-In . SVG Version: 6.00 Build 0)  -->
<svg version="1.1" id="Layer_1" xmlns="http://www.w3.org/2000/svg" xmlns:xlink="http://www.w3.org/1999/xlink" x="0px" y="0px"
	 viewBox="-200 201 599 599" style="enable-background:new -200 201 599 599;" xml:space="preserve">
<style type="text/css">
	.st0{fill:#DADDDF;}
	.st1{fill:#878787;}
	.st2{fill:#787878;}
	.st3{fill:#009CFF;}
	.st4{fill:#6E6E6E;}
	.st5{fill:#7D7D7D;}
	.st6{fill:#C7CACC;}
	.st7{fill:#008DFF;}
	.st8{clip-path:url(#SVGID_2_);fill:#C7CACC;}
	.st9{display:none;clip-path:url(#SVGID_2_);fill:#DADDDF;}
</style>
<g id="surface1">
	<path class="st0" d="M-81.2,345.6l45.1,454.2h270.9L280,345.6H-81.2z"/>
	<path class="st1" d="M-117.3,263h433.5v82.6h-433.5L-117.3,263L-117.3,263z"/>
	<path class="st2" d="M-81.2,263H280l-9.1-61.9H-72.2L-81.2,263z"/>
	<path class="st3" d="M289,438.5l-27.1,227.1H-63.2l-27.1-227.1H289z"/>
	<path class="st4" d="M270.9,201.1h-72.3L144.5,263h135.4L270.9,201.1z"/>
	<path class="st5" d="M316.1,263H90.3l-72.3,82.6h298V263z"/>
	<path class="st6" d="M246.1,686.3l2-20.6H-49.5l2,20.6H246.1z"/>
	<path class="st6" d="M277.9,366.4l2-20.6H-81.3l2,20.6H277.9z"/>
	<path class="st7" d="M289,438.5h-55.8C180.6,541.8,99.4,614.1,9.1,665.7h252.8L289,438.5z"/>
</g>
<g>
	<defs>
		<path id="SVGID_1_" d="M175,547.8c0.4,0,0.7-0.1,1.1-0.1c-1.9,3.7-3.8,7.4-5.7,11.1c-4.6,9-10.2,17.6-17,25.2
			c-2.4,2.7-5.5,4.5-8.6,6.2c-4.6,2.4-9.5,4.1-14.5,5.3c-8.6,2.2-17.5,3.2-26.4,3.6c-1.3,0-2.5,0.1-3.8,0.1
			c9.2-12.3,19.6-24,31.8-33.5c6.3-4.8,13.1-9,20.4-12.2c5.5-2.3,11.2-3.9,17.1-4.9C171.2,548.3,173.1,548.1,175,547.8z M23.7,547.8
			c-0.4,0-0.7-0.1-1.1-0.1c1.9,3.7,3.8,7.4,5.7,11.1c4.6,9,10.2,17.6,17,25.2c2.4,2.7,5.5,4.5,8.6,6.2c4.6,2.4,9.5,4.1,14.5,5.3
			c8.6,2.2,17.5,3.2,26.4,3.6c1.3,0,2.5,0.1,3.8,0.1c-9.2-12.3-19.6-24-31.8-33.5c-6.3-4.8-13.1-9-20.4-12.2
			c-5.5-2.3-11.2-3.9-17.1-4.9C27.5,548.3,25.6,548.1,23.7,547.8z M69.8,522.5c-0.6-0.5-1.3-1.1-2.1-1.5c-1.5,9.1-1.8,18.4-1,27.6
			c0.5,5.3,1.4,10.6,3,15.6c0.2,0.5,0.3,1.1,0.7,1.6c0.4,0.6,1,1.1,1.6,1.5c1.8,1.4,3.5,3.1,5.2,4.6c2.3,2.2,4.6,4.5,6.8,6.8
			c2.3,2.4,4.5,5,6.7,7.5c2.4,2.9,5.2,5.8,7.5,8.7c0.8,0.9,0.2-14,0-16.6c-2.5-13.6-3.4-15.3-9.9-32.2c-3.2-8.2-9.6-15.1-15.9-21.2
			C71.5,524,70.6,523.3,69.8,522.5z M128.9,522.5c0.6-0.5,1.3-1.1,2.1-1.5c1.5,9.1,1.8,18.4,1,27.6c-0.5,5.3-1.4,10.6-3,15.6
			c-0.2,0.5-0.3,1.1-0.7,1.6c-0.4,0.6-1,1.1-1.6,1.5c-1.8,1.4-3.5,3.1-5.2,4.6c-2.3,2.2-4.6,4.5-6.8,6.8c-2.3,2.4-4.5,5-6.7,7.5
			c-2.4,2.9-4.8,5.8-7.1,8.6c-0.8,0.9-0.3-14.2-0.1-16.8c2-13.6,3.2-17.3,10.2-32.5c3.2-7,9-14.6,15.3-20.7
			C127.2,524,128.1,523.3,128.9,522.5z M99.8,505c1.8,1.9,3.3,4.2,4.6,6.5c4.7,8.2,6.7,19.2,6.6,29.6c-1.7,3.1-2.3,4.3-3.6,7.5
			c-2.1,5.3-4.1,10.7-5.4,16.3c-1.1,4.3-1.7,8.7-2.3,13c-0.1,0.4-0.1,0.7-0.2,1.1c-0.6-4.2-1.3-8.3-2.2-12.5
			c-0.8-3.7-4.9-15.7-5.9-18.1c-0.8-1.9-3.1-6.5-3.1-7.1c0.6-10.5,2.7-21.7,7.7-30.3C97.2,509,98.3,506.9,99.8,505z M156.4,526.1
			c0.7-0.3,1.4-0.7,2.2-0.9c0,7.5-2.1,14.9-5.2,21.7c-0.6,1.4-1.3,2.9-2,4.3c-0.2,0.6-0.9,0.9-1.4,1.2c-2.8,1.2-5.5,2.6-8.1,4.2
			c-3.7,2.1-7.1,4.7-10.7,7.1c0.5-2.1,0.9-4.2,1.3-6.4c1-4.8,1.4-9.6,1.5-14.5c0-0.4,0-0.8,0.3-1.1c0.8-0.9,1.7-1.7,2.6-2.5
			c4.3-4.1,9.1-7.8,14.3-10.7C152.8,527.6,154.6,526.9,156.4,526.1z M42.3,526.1c-0.7-0.3-1.4-0.7-2.2-0.9c0,7.5,2.1,14.9,5.2,21.7
			c0.6,1.4,1.3,2.9,2,4.3c0.2,0.6,0.9,0.9,1.4,1.2c2.8,1.2,5.5,2.6,8.1,4.2c3.7,2.1,7.1,4.7,10.7,7.1c-0.5-2.1-0.9-4.2-1.3-6.4
			c-1-4.8-1.4-9.6-1.5-14.5c0-0.4,0-0.8-0.3-1.1c-0.8-0.9-1.7-1.7-2.6-2.5c-4.3-4.1-9.1-7.8-14.3-10.7
			C45.8,527.6,44.1,526.9,42.3,526.1z"/>
	</defs>
	<clipPath id="SVGID_2_">
		<use xlink:href="#SVGID_1_"  style="overflow:visible;"/>
	</clipPath>
	<path class="st8" d="M175,547.8c0.4,0,0.7-0.1,1.1-0.1c-1.9,3.7-3.8,7.4-5.7,11.1c-4.6,9-10.2,17.6-17,25.2
		c-2.4,2.7-5.5,4.5-8.6,6.2c-4.6,2.4-9.5,4.1-14.5,5.3c-8.6,2.2-17.5,3.2-26.4,3.6c-1.3,0-2.5,0.1-3.8,0.1
		c9.2-12.3,19.6-24,31.8-33.5c6.3-4.8,13.1-9,20.4-12.2c5.5-2.3,11.2-3.9,17.1-4.9C171.2,548.3,173.1,548.1,175,547.8z M23.7,547.8
		c-0.4,0-0.7-0.1-1.1-0.1c1.9,3.7,3.8,7.4,5.7,11.1c4.6,9,10.2,17.6,17,25.2c2.4,2.7,5.5,4.5,8.6,6.2c4.6,2.4,9.5,4.1,14.5,5.3
		c8.6,2.2,17.5,3.2,26.4,3.6c1.3,0,2.5,0.1,3.8,0.1c-9.2-12.3-19.6-24-31.8-33.5c-6.3-4.8-13.1-9-20.4-12.2
		c-5.5-2.3-11.2-3.9-17.1-4.9C27.5,548.3,25.6,548.1,23.7,547.8z M69.8,522.5c-0.6-0.5-1.3-1.1-2.1-1.5c-1.5,9.1-1.8,18.4-1,27.6
		c0.5,5.3,1.4,10.6,3,15.6c0.2,0.5,0.3,1.1,0.7,1.6c0.4,0.6,1,1.1,1.6,1.5c1.8,1.4,3.5,3.1,5.2,4.6c2.3,2.2,4.6,4.5,6.8,6.8
		c2.3,2.4,4.5,5,6.7,7.5c2.4,2.9,5.2,5.8,7.5,8.7c0.8,0.9,0.2-14,0-16.6c-2.5-13.6-3.4-15.3-9.9-32.2c-3.2-8.2-9.6-15.1-15.9-21.2
		C71.5,524,70.6,523.3,69.8,522.5z M128.9,522.5c0.6-0.5,1.3-1.1,2.1-1.5c1.5,9.1,1.8,18.4,1,27.6c-0.5,5.3-1.4,10.6-3,15.6
		c-0.2,0.5-0.3,1.1-0.7,1.6c-0.4,0.6-1,1.1-1.6,1.5c-1.8,1.4-3.5,3.1-5.2,4.6c-2.3,2.2-4.6,4.5-6.8,6.8c-2.3,2.4-4.5,5-6.7,7.5
		c-2.4,2.9-4.8,5.8-7.1,8.6c-0.8,0.9-0.3-14.2-0.1-16.8c2-13.6,3.2-17.3,10.2-32.5c3.2-7,9-14.6,15.3-20.7
		C127.2,524,128.1,523.3,128.9,522.5z M99.8,505c1.8,1.9,3.3,4.2,4.6,6.5c4.7,8.2,6.7,19.2,6.6,29.6c-1.7,3.1-2.3,4.3-3.6,7.5
		c-2.1,5.3-4.1,10.7-5.4,16.3c-1.1,4.3-1.7,8.7-2.3,13c-0.1,0.4-0.1,0.7-0.2,1.1c-0.6-4.2-1.3-8.3-2.2-12.5
		c-0.8-3.7-4.9-15.7-5.9-18.1c-0.8-1.9-3.1-6.5-3.1-7.1c0.6-10.5,2.7-21.7,7.7-30.3C97.2,509,98.3,506.9,99.8,505z M156.4,526.1
		c0.7-0.3,1.4-0.7,2.2-0.9c0,7.5-2.1,14.9-5.2,21.7c-0.6,1.4-1.3,2.9-2,4.3c-0.2,0.6-0.9,0.9-1.4,1.2c-2.8,1.2-5.5,2.6-8.1,4.2
		c-3.7,2.1-7.1,4.7-10.7,7.1c0.5-2.1,0.9-4.2,1.3-6.4c1-4.8,1.4-9.6,1.5-14.5c0-0.4,0-0.8,0.3-1.1c0.8-0.9,1.7-1.7,2.6-2.5
		c4.3-4.1,9.1-7.8,14.3-10.7C152.8,527.6,154.6,526.9,156.4,526.1z M42.3,526.1c-0.7-0.3-1.4-0.7-2.2-0.9c0,7.5,2.1,14.9,5.2,21.7
		c0.6,1.4,1.3,2.9,2,4.3c0.2,0.6,0.9,0.9,1.4,1.2c2.8,1.2,5.5,2.6,8.1,4.2c3.7,2.1,7.1,4.7,10.7,7.1c-0.5-2.1-0.9-4.2-1.3-6.4
		c-1-4.8-1.4-9.6-1.5-14.5c0-0.4,0-0.8-0.3-1.1c-0.8-0.9-1.7-1.7-2.6-2.5c-4.3-4.1-9.1-7.8-14.3-10.7
		C45.8,527.6,44.1,526.9,42.3,526.1z"/>
	<path class="st9" d="M175,567.8c0.4,0,0.7-0.1,1.1-0.1c-1.9,3.7-3.8,7.4-5.7,11.1c-4.6,9-10.2,17.6-17,25.2
		c-2.4,2.7-5.5,4.5-8.6,6.2c-4.6,2.4-9.5,4.1-14.5,5.3c-8.6,2.2-17.5,3.2-26.4,3.6c-1.3,0-2.5,0.1-3.8,0.1
		c9.2-12.3,19.6-24,31.8-33.5c6.3-4.8,13.1-9,20.4-12.2c5.5-2.3,11.2-3.9,17.1-4.9C171.2,568.3,173.1,568.1,175,567.8z M23.7,567.8
		c-0.4,0-0.7-0.1-1.1-0.1c1.9,3.7,3.8,7.4,5.7,11.1c4.6,9,10.2,17.6,17,25.2c2.4,2.7,5.5,4.5,8.6,6.2c4.6,2.4,9.5,4.1,14.5,5.3
		c8.6,2.2,17.5,3.2,26.4,3.6c1.3,0,2.5,0.1,3.8,0.1c-9.2-12.3-19.6-24-31.8-33.5c-6.3-4.8-13.1-9-20.4-12.2
		c-5.5-2.3-11.2-3.9-17.1-4.9C27.5,568.3,25.6,568.1,23.7,567.8z M69.8,542.5c-0.6-0.5-1.3-1.1-2.1-1.5c-1.5,9.1-1.8,18.4-1,27.6
		c0.5,5.3,1.4,10.6,3,15.6c0.2,0.5,0.3,1.1,0.7,1.6c0.4,0.6,1,1.1,1.6,1.5c1.8,1.4,3.5,3.1,5.2,4.6c2.3,2.2,4.6,4.5,6.8,6.8
		c2.3,2.4,4.5,5,6.7,7.5c2.4,2.9,5.2,5.8,7.5,8.7c0.8,0.9,0.2-14,0-16.6c-2.5-13.6-3.4-15.3-9.9-32.2c-3.2-8.2-9.6-15.1-15.9-21.2
		C71.5,544,70.6,543.3,69.8,542.5z M128.9,542.5c0.6-0.5,1.3-1.1,2.1-1.5c1.5,9.1,1.8,18.4,1,27.6c-0.5,5.3-1.4,10.6-3,15.6
		c-0.2,0.5-0.3,1.1-0.7,1.6c-0.4,0.6-1,1.1-1.6,1.5c-1.8,1.4-3.5,3.1-5.2,4.6c-2.3,2.2-4.6,4.5-6.8,6.8c-2.3,2.4-4.5,5-6.7,7.5
		c-2.4,2.9-4.8,5.8-7.1,8.6c-0.8,0.9-0.3-14.2-0.1-16.8c2-13.6,3.2-17.3,10.2-32.5c3.2-7,9-14.6,15.3-20.7
		C127.2,544,128.1,543.3,128.9,542.5z M99.8,525c1.8,1.9,3.3,4.2,4.6,6.5c4.7,8.2,6.7,19.2,6.6,29.6c-1.7,3.1-2.3,4.3-3.6,7.5
		c-2.1,5.3-4.1,10.7-5.4,16.3c-1.1,4.3-1.7,8.7-2.3,13c-0.1,0.4-0.1,0.7-0.2,1.1c-0.6-4.2-1.3-8.3-2.2-12.5
		c-0.8-3.7-4.9-15.7-5.9-18.1c-0.8-1.9-3.1-6.5-3.1-7.1c0.6-10.5,2.7-21.7,7.7-30.3C97.2,529,98.3,526.9,99.8,525z M156.4,546.1
		c0.7-0.3,1.4-0.7,2.2-0.9c0,7.5-2.1,14.9-5.2,21.7c-0.6,1.4-1.3,2.9-2,4.3c-0.2,0.6-0.9,0.9-1.4,1.2c-2.8,1.2-5.5,2.6-8.1,4.2
		c-3.7,2.1-7.1,4.7-10.7,7.1c0.5-2.1,0.9-4.2,1.3-6.4c1-4.8,1.4-9.6,1.5-14.5c0-0.4,0-0.8,0.3-1.1c0.8-0.9,1.7-1.7,2.6-2.5
		c4.3-4.1,9.1-7.8,14.3-10.7C152.8,547.6,154.6,546.9,156.4,546.1z M42.3,546.1c-0.7-0.3-1.4-0.7-2.2-0.9c0,7.5,2.1,14.9,5.2,21.7
		c0.6,1.4,1.3,2.9,2,4.3c0.2,0.6,0.9,0.9,1.4,1.2c2.8,1.2,5.5,2.6,8.1,4.2c3.7,2.1,7.1,4.7,10.7,7.1c-0.5-2.1-0.9-4.2-1.3-6.4
		c-1-4.8-1.4-9.6-1.5-14.5c0-0.4,0-0.8-0.3-1.1c-0.8-0.9-1.7-1.7-2.6-2.5c-4.3-4.1-9.1-7.8-14.3-10.7
		C45.8,547.6,44.1,546.9,42.3,546.1z"/>
</g>
</svg>
