<?xml version="1.0" encoding="UTF-8" standalone="no"?>
<!DOCTYPE svg PUBLIC "-//W3C//DTD SVG 1.1//EN" "http://www.w3.org/Graphics/SVG/1.1/DTD/svg11.dtd">
<svg width="100%" height="100%" viewBox="0 0 1020 228" version="1.1" xmlns="http://www.w3.org/2000/svg" xmlns:xlink="http://www.w3.org/1999/xlink" xml:space="preserve" xmlns:serif="http://www.serif.com/" style="fill-rule:evenodd;clip-rule:evenodd;stroke-linejoin:round;stroke-miterlimit:2;">
    <g transform="matrix(1,0,0,1,-76.635,0)">
        <path d="M402.245,108.815C407.755,107.065 413.505,106.335 419.165,105.215C411.795,122.445 403.525,139.635 391.075,153.825C381.785,162.675 369.205,166.835 356.985,169.745C347.385,171.905 337.605,173.015 327.795,173.635C338.495,157.705 350.855,142.805 365.235,130.065C376.085,120.735 388.585,113.185 402.245,108.815ZM230.135,105.185C236.555,106.575 243.145,107.355 249.345,109.625C267.365,115.855 282.885,127.645 295.875,141.395C305.655,151.105 313.365,162.595 321.545,173.635C303.975,172.745 286.175,169.765 270.175,162.175C258.905,156.895 251.415,146.445 245.305,136.005C239.265,126.235 234.865,115.605 230.135,105.185ZM287.335,128.055C283.195,110.065 283.265,91.265 286.745,73.165C303.935,88.345 314.315,109.985 319.405,132.065C322.575,144.995 323.215,158.325 323.605,171.575C319.925,166.915 316.155,162.325 312.645,157.525C306.185,148.495 298.225,140.695 290.495,132.775C289.205,131.385 287.785,129.955 287.335,128.055ZM345.215,93.995C350.265,86.515 355.445,78.975 362.495,73.195C365.745,90.535 366.325,108.625 362.465,125.915C361.795,131.095 357.075,134.035 353.885,137.655C343.375,147.815 335.095,159.935 326.195,171.455C326.235,163.255 325.835,154.995 327.045,146.845C329.715,128.315 335.405,110.025 345.215,93.995ZM310.975,97.025C312.535,82.035 316.305,66.825 325.155,54.365C332.415,63.585 336.995,74.685 339.075,86.195C339.785,90.465 341.315,95.095 339.345,99.235C336.155,106.745 332.375,114.045 330.375,121.995C327.445,130.065 326.325,138.595 324.665,146.985C322.505,134.455 319.885,121.895 314.835,110.175C313.195,105.925 310.445,101.775 310.975,97.025ZM368.575,98.415C376.415,89.535 386.015,82.175 396.865,77.365C396.675,89.055 393.995,100.885 388.425,111.195C380.465,116.305 372.235,121.065 364.845,127.035C365.975,119.405 366.895,111.735 367.105,104.015C367.185,102.085 367.075,99.885 368.575,98.415ZM252.515,77.615C262.225,81.445 270.475,88.055 277.745,95.425C279.465,97.325 282.175,98.975 281.955,101.905C282.405,110.305 283.135,118.685 284.415,127.005C278.255,122.225 271.835,117.775 265.015,113.965C262.815,112.735 260.385,111.405 259.345,108.975C255.075,99.095 252.475,88.415 252.515,77.615Z" style="fill:rgb(0,166,233);fill-rule:nonzero;"/>
    </g>
    <path d="M427.939,153.068C424.281,153.068 420.944,152.289 417.93,150.731C414.915,149.173 412.595,147.107 410.969,144.532L410.563,144.532L410.563,151.442L401.621,151.442L401.621,78.687L410.969,78.687L410.969,101.652L410.563,108.562L410.969,108.562C412.595,105.987 414.915,103.921 417.93,102.363C420.944,100.805 424.281,100.026 427.939,100.026C434.51,100.026 440.065,102.6 444.603,107.749C449.277,112.965 451.615,119.231 451.615,126.547C451.615,133.931 449.277,140.197 444.603,145.345C440.065,150.494 434.51,153.068 427.939,153.068ZM540.831,137.623C540.831,141.958 538.934,145.616 535.14,148.597C531.347,151.578 526.571,153.068 520.813,153.068C515.8,153.068 511.397,151.764 507.603,149.156C503.81,146.548 501.1,143.11 499.474,138.842L507.807,135.286C509.026,138.266 510.804,140.587 513.141,142.246C515.478,143.906 518.036,144.736 520.813,144.736C523.794,144.736 526.283,144.092 528.281,142.805C530.28,141.518 531.279,139.994 531.279,138.232C531.279,135.049 528.84,132.712 523.963,131.221L515.427,129.087C505.74,126.649 500.897,121.974 500.897,115.065C500.897,110.526 502.743,106.885 506.435,104.141C510.127,101.398 514.852,100.026 520.61,100.026C525.013,100.026 528.993,101.076 532.549,103.176C536.106,105.276 538.595,108.087 540.018,111.61L531.686,115.065C530.737,112.965 529.196,111.322 527.062,110.137C524.928,108.951 522.54,108.358 519.898,108.358C517.46,108.358 515.275,108.968 513.344,110.187C511.414,111.407 510.448,112.897 510.448,114.658C510.448,117.503 513.124,119.536 518.476,120.755L525.995,122.686C535.886,125.124 540.831,130.103 540.831,137.623ZM587.065,137.623C587.065,141.958 585.168,145.616 581.374,148.597C577.581,151.578 572.805,153.068 567.047,153.068C562.034,153.068 557.631,151.764 553.837,149.156C550.044,146.548 547.334,143.11 545.708,138.842L554.04,135.286C555.26,138.266 557.038,140.587 559.375,142.246C561.712,143.906 564.269,144.736 567.047,144.736C570.027,144.736 572.517,144.092 574.515,142.805C576.514,141.518 577.513,139.994 577.513,138.232C577.513,135.049 575.074,132.712 570.197,131.221L561.661,129.087C551.974,126.649 547.131,121.974 547.131,115.065C547.131,110.526 548.977,106.885 552.669,104.141C556.361,101.398 561.086,100.026 566.844,100.026C571.247,100.026 575.227,101.076 578.783,103.176C582.34,105.276 584.829,108.087 586.252,111.61L577.919,115.065C576.971,112.965 575.43,111.322 573.296,110.137C571.162,108.951 568.774,108.358 566.132,108.358C563.694,108.358 561.509,108.968 559.578,110.187C557.648,111.407 556.682,112.897 556.682,114.658C556.682,117.503 559.358,119.536 564.71,120.755L572.229,122.686C582.119,125.124 587.065,130.103 587.065,137.623ZM712.048,137.623C712.048,141.958 710.152,145.616 706.358,148.597C702.565,151.578 697.789,153.068 692.031,153.068C687.018,153.068 682.615,151.764 678.821,149.156C675.027,146.548 672.318,143.11 670.692,138.842L679.024,135.286C680.244,138.266 682.022,140.587 684.359,142.246C686.696,143.906 689.253,144.736 692.031,144.736C695.011,144.736 697.501,144.092 699.499,142.805C701.498,141.518 702.497,139.994 702.497,138.232C702.497,135.049 700.058,132.712 695.181,131.221L686.645,129.087C676.958,126.649 672.115,121.974 672.115,115.065C672.115,110.526 673.96,106.885 677.652,104.141C681.344,101.398 686.069,100.026 691.827,100.026C696.231,100.026 700.21,101.076 703.767,103.176C707.323,105.276 709.813,108.087 711.235,111.61L702.903,115.065C701.955,112.965 700.414,111.322 698.28,110.137C696.146,108.951 693.758,108.358 691.116,108.358C688.677,108.358 686.493,108.968 684.562,110.187C682.631,111.407 681.666,112.897 681.666,114.658C681.666,117.503 684.342,119.536 689.694,120.755L697.213,122.686C707.103,125.124 712.048,130.103 712.048,137.623ZM842.926,153.068C835.61,153.068 829.581,150.562 824.839,145.549C820.097,140.536 817.726,134.202 817.726,126.547C817.726,118.96 820.029,112.643 824.635,107.596C829.242,102.549 835.135,100.026 842.316,100.026C849.7,100.026 855.577,102.414 859.946,107.19C864.315,111.966 866.5,118.655 866.5,127.258L866.398,128.274L827.277,128.274C827.413,133.152 829.039,137.081 832.155,140.062C835.271,143.042 838.997,144.532 843.332,144.532C849.294,144.532 853.968,141.552 857.355,135.591L865.687,139.655C863.452,143.855 860.352,147.141 856.389,149.512C852.427,151.882 847.939,153.068 842.926,153.068ZM614.703,126.547C614.703,118.892 617.108,112.558 621.918,107.545C626.795,102.532 632.926,100.026 640.31,100.026C647.694,100.026 653.79,102.532 658.6,107.545C663.477,112.558 665.916,118.892 665.916,126.547C665.916,134.27 663.477,140.603 658.6,145.549C653.79,150.562 647.694,153.068 640.31,153.068C632.926,153.068 626.795,150.562 621.918,145.549C617.108,140.536 614.703,134.202 614.703,126.547ZM804.821,152.255C800.756,152.255 797.386,151.002 794.71,148.495C792.035,145.989 790.663,142.5 790.595,138.029L790.595,110.187L781.856,110.187L781.856,101.652L790.595,101.652L790.595,86.41L799.944,86.41L799.944,101.652L812.137,101.652L812.137,110.187L799.944,110.187L799.944,134.981C799.944,138.3 800.587,140.553 801.874,141.738C803.161,142.924 804.618,143.516 806.244,143.516C806.989,143.516 807.717,143.432 808.428,143.262C809.139,143.093 809.8,142.873 810.41,142.602L813.356,150.934C810.918,151.815 808.073,152.255 804.821,152.255ZM751.881,78.687L751.881,151.442L742.532,151.442L742.532,78.687L751.881,78.687ZM468.99,78.687L468.99,151.442L459.642,151.442L459.642,78.687L468.99,78.687ZM490.532,101.652L490.532,151.442L481.184,151.442L481.184,101.652L490.532,101.652ZM773.423,101.652L773.423,151.442L764.074,151.442L764.074,101.652L773.423,101.652ZM426.415,144.532C430.886,144.532 434.645,142.839 437.694,139.452C440.742,136.132 442.266,131.831 442.266,126.547C442.266,121.331 440.742,117.029 437.694,113.642C434.645,110.255 430.886,108.562 426.415,108.562C421.876,108.562 418.082,110.255 415.034,113.642C412.053,117.029 410.563,121.331 410.563,126.547C410.563,131.831 412.053,136.166 415.034,139.553C418.082,142.873 421.876,144.532 426.415,144.532ZM624.052,126.547C624.052,131.899 625.61,136.234 628.726,139.553C631.842,142.873 635.703,144.532 640.31,144.532C644.916,144.532 648.777,142.873 651.894,139.553C655.01,136.234 656.568,131.899 656.568,126.547C656.568,121.263 655.01,116.962 651.894,113.642C648.71,110.255 644.848,108.562 640.31,108.562C635.771,108.562 631.91,110.255 628.726,113.642C625.61,116.962 624.052,121.263 624.052,126.547ZM827.989,120.552L856.542,120.552C856.271,117.097 854.865,114.235 852.325,111.966C849.785,109.696 846.381,108.562 842.113,108.562C838.59,108.562 835.559,109.645 833.019,111.813C830.478,113.981 828.802,116.894 827.989,120.552ZM492.463,84.479C492.463,86.308 491.819,87.866 490.532,89.153C489.245,90.441 487.687,91.084 485.858,91.084C484.029,91.084 482.471,90.441 481.184,89.153C479.897,87.866 479.253,86.308 479.253,84.479C479.253,82.65 479.897,81.092 481.184,79.805C482.471,78.518 484.029,77.874 485.858,77.874C487.687,77.874 489.245,78.518 490.532,79.805C491.819,81.092 492.463,82.65 492.463,84.479ZM775.353,84.479C775.353,86.308 774.71,87.866 773.423,89.153C772.135,90.441 770.577,91.084 768.748,91.084C766.919,91.084 765.361,90.441 764.074,89.153C762.787,87.866 762.144,86.308 762.144,84.479C762.144,82.65 762.787,81.092 764.074,79.805C765.361,78.518 766.919,77.874 768.748,77.874C770.577,77.874 772.135,78.518 773.423,79.805C774.71,81.092 775.353,82.65 775.353,84.479Z" style="fill-rule:nonzero;"/>
</svg>
