<?xml version="1.0" encoding="utf-8"?>
<!-- Generator: Adobe Illustrator 21.0.2, SVG Export Plug-In . SVG Version: 6.00 Build 0)  -->
<svg version="1.1" id="Layer_1" xmlns="http://www.w3.org/2000/svg" xmlns:xlink="http://www.w3.org/1999/xlink" x="0px" y="0px"
	 viewBox="0 0 360 360" style="enable-background:new 0 0 360 360;" xml:space="preserve">
<style type="text/css">
	.st0{fill:#010101;}
</style>
<g>
	<path class="st0" d="M185.3,263.9c2.3-3.3,4.5-6.3,6.6-9.3c12.1-16.5,25.2-32,40.2-45.9c12.9-11.9,26.8-22.2,42.6-30
		c12.8-6.4,26.3-10.5,40.5-12.6c1.9-0.3,3.8-0.6,5.7-0.9c0.1,0.1,0.1,0.2,0.1,0.2c-3.8,8-7.6,16-11.5,24
		c-7.6,15.6-16.7,30.2-27.9,43.5c-3.5,4.2-7.9,7.3-12.5,10.2c-10,6.2-21,10.2-32.3,13.2c-13.9,3.7-28.1,5.9-42.5,7.1
		c-2.6,0.2-5.2,0.4-7.8,0.5C186.3,263.9,186,263.9,185.3,263.9z"/>
	<path class="st0" d="M176.2,263.9c-2.7-0.2-5.1-0.3-7.5-0.5c-14.2-1.1-28.2-3.1-42-6.7c-11.1-2.8-21.9-6.6-31.9-12.3
		c-8.1-4.6-14.7-10.8-20.3-18.3c-10.9-14.6-19.8-30.4-27.3-46.9c-2.1-4.7-4.4-9.3-6.6-14c0.2,0,0.4,0,0.6,0
		c27.7,3.3,52,14.3,73.9,31.3c16.2,12.7,30.4,27.4,43.2,43.4c6,7.5,11.5,15.3,17.2,23C175.7,263.2,175.9,263.4,176.2,263.9z"/>
	<path class="st0" d="M178.9,260.9c-0.5-0.4-0.9-0.6-1.2-1c-5.7-7.6-11.3-15.2-17.1-22.7c-2.7-3.5-5.6-6.8-8.6-10.1
		c-5.2-5.6-10.4-11.2-15.7-16.6c-3-3-6.3-5.8-9.4-8.7c-0.4-0.4-0.7-0.9-0.9-1.5c-4.5-16.1-5.8-32.5-5.3-49.1
		c0.4-10.4,1.4-20.6,3.4-30.8c0.1-0.4,0.2-0.8,0.3-1.4c0.4,0.3,0.8,0.5,1.1,0.8c7.7,6.5,14.3,14.2,20.1,22.4
		c13.9,19.5,22.8,41.2,28,64.6c3.9,17.4,5.5,35.1,5.3,53c0,0.2,0,0.4,0,0.6C179.1,260.5,179.1,260.5,178.9,260.9z"/>
	<path class="st0" d="M182.5,261c-0.1-0.7-0.1-0.9-0.1-1.1c-0.2-21.1,2-42,7.6-62.4c5.9-21.4,15-41.2,28.4-58.9
		c5.2-6.9,11-13.4,17.7-18.9c0.2-0.2,0.4-0.3,0.6-0.4c0,0,0.1,0,0.3,0c0.1,0.3,0.2,0.7,0.2,1c3.1,16,4.2,32.2,3.3,48.4
		c-0.6,10.6-2.1,21.1-5,31.4c-0.2,0.9-0.9,1.7-1.5,2.4c-1.5,1.5-3.1,2.7-4.6,4.2c-3.4,3.3-6.9,6.6-10.2,10
		c-4.8,5.1-9.6,10.3-14.1,15.7c-6.5,7.9-12.6,16.1-18.9,24.1c-0.8,1.1-1.6,2.3-2.4,3.4C183.6,260.2,183.1,260.5,182.5,261z"/>
	<path class="st0" d="M181.4,91.8c3.8,4.2,6.8,8.7,9.4,13.6c6.8,12.5,10.8,26,12.8,40.1c0.3,2.3,0.6,4.7,0.8,7.1
		c0,0.4-0.1,0.9-0.2,1.2c-3.5,6.3-6.8,12.7-9.4,19.4c-2,5.1-4,10.3-5.7,15.5c-2.6,7.9-4.6,16-6,24.2c-0.8,4.7-1.4,9.4-2.1,14.1
		c0,0-0.1,0.1-0.2,0.2c-0.3-2-0.5-3.9-0.8-5.8c-0.9-5-1.7-10-2.7-14.9c-1.6-8-3.8-15.8-6.6-23.4c-2.2-5.9-4.7-11.6-7.1-17.4
		c-0.9-2.1-2-4.1-3-6.1c-0.1-0.3-0.2-0.7-0.2-1c1-17.1,4.3-33.7,11.2-49.5c2.5-5.8,5.5-11.3,9.2-16.4
		C181,92.3,181.2,92.1,181.4,91.8z"/>
	<path class="st0" d="M121.5,197.1c-2.6-2-5.1-4-7.6-5.8c-6.3-4.7-12.8-9-19.6-12.7c-2.6-1.4-5.3-2.7-7.9-4.1
		c-0.4-0.2-0.9-0.7-1.1-1.1c-6.1-12.9-10.2-26.3-11.3-40.5c-0.2-2.5,0-5,0-7.7c0.4,0.1,0.9,0.2,1.3,0.4c7.2,2.8,13.7,6.9,19.9,11.4
		c7.9,5.8,15.1,12.5,21.8,19.7c0.4,0.4,0.6,1.1,0.6,1.6c0.1,2.1-0.1,4.1,0.1,6.2c0.3,5.1,0.5,10.2,1.1,15.2c0.7,5.5,1.8,11,2.8,16.5
		C121.5,196.5,121.5,196.8,121.5,197.1z"/>
	<path class="st0" d="M287.6,125.2c0,0.5,0.1,0.9,0.1,1.3c0.1,10.9-2,21.4-5.5,31.6c-1.8,5.2-4,10.1-6,15.2
		c-0.2,0.6-0.9,1.2-1.5,1.5c-8.4,4-16.3,8.8-23.8,14.2c-3.6,2.6-7.2,5.4-10.9,8.2c0.3-1.4,0.6-2.7,0.8-4c0.7-4.4,1.5-8.8,2.1-13.2
		c0.5-3.8,0.7-7.5,0.9-11.3c0.2-3.5,0.1-7,0.2-10.5c0-0.4,0.1-0.9,0.4-1.2c9.1-9.8,19-18.7,30.6-25.5c3.8-2.2,7.9-3.9,11.8-5.9
		C287,125.3,287.2,125.3,287.6,125.2z"/>
</g>
<path class="st0" d="M180.9,332.2c-82.8,0-150-67.2-150-150s67.2-150,150-150s150,67.2,150,150S263.8,332.2,180.9,332.2z
	 M342.1,181.3c0-89.5-72.6-162.1-162.1-162.1S17.9,91.8,17.9,181.3S90.5,343.4,180,343.4S342.1,270.8,342.1,181.3z"/>
</svg>
