<svg id="Группа_1" data-name="Группа 1" xmlns="http://www.w3.org/2000/svg" width="862" height="1764.03" viewBox="0 0 862 1764.03">
  <metadata><?xpacket begin="﻿" id="W5M0MpCehiHzreSzNTczkc9d"?>
<x:xmpmeta xmlns:x="adobe:ns:meta/" x:xmptk="Adobe XMP Core 5.6-c138 79.159824, 2016/09/14-01:09:01        ">
   <rdf:RDF xmlns:rdf="http://www.w3.org/1999/02/22-rdf-syntax-ns#">
      <rdf:Description rdf:about=""/>
   </rdf:RDF>
</x:xmpmeta>
                                                                                                    
                                                                                                    
                                                                                                    
                                                                                                    
                                                                                                    
                                                                                                    
                                                                                                    
                                                                                                    
                                                                                                    
                                                                                                    
                                                                                                    
                                                                                                    
                                                                                                    
                                                                                                    
                                                                                                    
                                                                                                    
                                                                                                    
                                                                                                    
                                                                                                    
                                                                                                    
                           
<?xpacket end="w"?></metadata>
<defs>
    <style>
      .cls-1 {
        fill: #3a3a3a;
      }

      .cls-2 {
        fill-rule: evenodd;
      }
    </style>
  </defs>
  <rect id="Прямоугольник_скругл._углы_1" data-name="Прямоугольник, скругл. углы 1" class="cls-1" x="191.5" y="28.5" width="496" height="1716" rx="10" ry="10"/>
  <path id="iphone_black" data-name="iphone black" class="cls-2" d="M1344.5,4869.5h-5.03V5986.4a141.06,141.06,0,0,1-127.07,140.44,1.993,1.993,0,0,0-1.84-1.21h-8.81a2,2,0,0,0-1.99,1.87c-0.4.01-.81,0.02-1.21,0.02h-14.81a1.989,1.989,0,0,0-1.99-1.89h-8.81a1.983,1.983,0,0,0-1.99,1.89h-16.09a1.983,1.983,0,0,0-1.99-1.89h-8.81a1.989,1.989,0,0,0-1.99,1.89h-16.02a1.983,1.983,0,0,0-1.99-1.89h-8.87a1.983,1.983,0,0,0-1.99,1.89h-16.02a1.989,1.989,0,0,0-1.99-1.89h-8.82a1.98,1.98,0,0,0-1.98,1.89h-16.03a1.983,1.983,0,0,0-1.99-1.89h-8.87a1.989,1.989,0,0,0-1.99,1.89H1005.5v-0.02a2.006,2.006,0,0,0-2-2h-16a2,2,0,0,0-2,2v0.02h-24V6126a2.5,2.5,0,0,0-2.5-2.5H868a2.5,2.5,0,0,0-2.5,2.5v1.52h-22v-0.02a2,2,0,0,0-2-2h-16a2,2,0,0,0-2,2v0.02H773.489a1.987,1.987,0,0,0-1.989-1.89h-8.875a1.987,1.987,0,0,0-1.989,1.89H744.614a1.987,1.987,0,0,0-1.989-1.89h-8.812a1.987,1.987,0,0,0-1.99,1.89H715.8a1.987,1.987,0,0,0-1.989-1.89h-8.876a1.987,1.987,0,0,0-1.989,1.89H686.927a1.987,1.987,0,0,0-1.99-1.89h-8.812a1.987,1.987,0,0,0-1.989,1.89H658.052a1.987,1.987,0,0,0-1.99-1.89H647.25a1.987,1.987,0,0,0-1.989,1.89H629.239a1.987,1.987,0,0,0-1.989-1.89h-8.813a1.99,1.99,0,0,0-1.894,1.38A141.041,141.041,0,0,1,487.53,5986.4V5029.5H484.5a1,1,0,0,1-1-1v-126a1,1,0,0,1,1-1h3.03v-32H484.5a1,1,0,0,1-1-1v-126a1,1,0,0,1,1-1h3.03v-82H484.5a1,1,0,0,1-1-1v-70a1,1,0,0,1,1-1h3.03v-82.87c0-77.94,63.094-141.13,140.923-141.13h570.1c77.83,0,140.92,63.19,140.92,141.13V4741.5h5.03a1,1,0,0,1,1,1v126A1,1,0,0,1,1344.5,4869.5Zm-567-404a14,14,0,1,0,14,14A14,14,0,0,0,777.5,4465.5Zm136,1618a68,68,0,1,0-68-68A68,68,0,0,0,913.5,6083.5Zm-0.022-1669.13a10,10,0,1,0,9.994,10A10,10,0,0,0,913.478,4414.37ZM987.5,4477.5a4,4,0,0,0-4-4h-140a4,4,0,0,0-4,4v4a4,4,0,0,0,4,4h140a4,4,0,0,0,4-4v-4Zm-74,1477c33.137,0,60,27.31,60,61s-26.863,61-60,61-60-27.31-60-61S880.363,5954.5,913.5,5954.5Z" transform="translate(-483.5 -4363.5)"/>
</svg>