<?xml version="1.0" encoding="utf-8"?>
<!-- Generator: Adobe Illustrator 19.1.0, SVG Export Plug-In . SVG Version: 6.00 Build 0)  -->
<svg version="1.1" id="Группа_1" xmlns="http://www.w3.org/2000/svg" xmlns:xlink="http://www.w3.org/1999/xlink" x="0px"
	 y="0px" viewBox="125 -486 862 1764" style="enable-background:new 125 -486 862 1764;" xml:space="preserve">
<style type="text/css">
	.st0{fill:#3A3A3A;}
</style>
<path id="Прямоугольник_скругл._углы_1" class="st0" d="M235.5-457.5h642c7.4,0,13.5,4.5,13.5,10v1696
	c0,5.5-6,10-13.5,10h-642c-7.4,0-13.5-4.5-13.5-10v-1696C222-453.1,228-457.5,235.5-457.5z"/>
<path id="iphone_black" d="M986,20h-5v1116.9c0,72.5-54.9,133.2-127.1,140.4c-0.3-0.7-1-1.2-1.8-1.2h-8.8c-1.1,0-1.9,0.8-2,1.9
	c-0.4,0-0.8,0-1.2,0h-14.8c-0.1-1.1-0.9-1.9-2-1.9h-8.8c-1.1,0-1.9,0.8-2,1.9h-16.1c0-1.1-0.9-1.9-2-1.9h-8.8c-1.1,0-1.9,0.8-2,1.9
	h-16c0-1.1-0.9-1.9-2-1.9h-8.9c-1.1,0-1.9,0.8-2,1.9h-16c-0.1-1.1-0.9-1.9-2-1.9h-8.8c-1.1,0-1.9,0.8-2,1.9h-16c0-1.1-0.9-1.9-2-1.9
	H699c-1.1,0-1.9,0.8-2,1.9h-50v0c0-1.1-0.9-2-2-2h-16c-1.1,0-2,0.9-2,2v0h-24v-1.5c0-1.4-1.1-2.5-2.5-2.5h-91
	c-1.4,0-2.5,1.1-2.5,2.5v1.5h-22v0c0-1.1-0.9-2-2-2h-16c-1.1,0-2,0.9-2,2v0h-50c-0.1-1.1-0.9-1.9-2-1.9h-8.9c-1.1,0-1.9,0.8-2,1.9
	h-16c-0.1-1.1-0.9-1.9-2-1.9h-8.8c-1.1,0-1.9,0.8-2,1.9h-16c-0.1-1.1-0.9-1.9-2-1.9h-8.9c-1.1,0-1.9,0.8-2,1.9h-16
	c-0.1-1.1-0.9-1.9-2-1.9h-8.8c-1.1,0-1.9,0.8-2,1.9h-16.1c-0.1-1.1-0.9-1.9-2-1.9h-8.8c-1.1,0-1.9,0.8-2,1.9h-16
	c-0.1-1.1-0.9-1.9-2-1.9h-8.8c-0.9,0-1.6,0.6-1.9,1.4c-73-6.2-129.1-67.3-129-140.6V180h-3c-0.6,0-1-0.4-1-1V53c0-0.6,0.4-1,1-1h3
	V20h-3c-0.6,0-1-0.4-1-1v-126c0-0.6,0.4-1,1-1h3v-82h-3c-0.6,0-1-0.4-1-1v-70c0-0.6,0.4-1,1-1h3v-82.9C129-422.8,192.1-486,270-486
	h570.1c77.8,0,140.9,63.2,140.9,141.1V-108h5c0.6,0,1,0.4,1,1V19C987,19.5,986.6,20,986,20C986,20,986,20,986,20z M274.1-384
	c-7.7,0-14,6.3-14,14s6.3,14,14,14s14-6.3,14-14S281.8-384,274.1-384z M342-380c-5.5,0-10,4.5-10,10s4.5,10,10,10s10-4.5,10-10
	c0,0,0,0,0,0C352-375.6,347.6-380,342-380z M629-372c0-2.2-1.8-4-4-4H485c-2.2,0-4,1.8-4,4v4c0,2.2,1.8,4,4,4h140c2.2,0,4-1.8,4-4
	V-372z"/>
</svg>
