<?xml version="1.0" encoding="utf-8"?>
<!-- Generator: Adobe Illustrator 19.1.0, SVG Export Plug-In . SVG Version: 6.00 Build 0)  -->
<svg version="1.1" id="Capa_1" xmlns="http://www.w3.org/2000/svg" xmlns:xlink="http://www.w3.org/1999/xlink" x="0px" y="0px"
	 viewBox="-443 445.5 111.5 111.5" style="enable-background:new -443 445.5 111.5 111.5;" xml:space="preserve">
<g>
	<path d="M-333.2,460.1h-108.1c-0.9,0-1.7,0.8-1.7,1.7v78.9c0,0.9,0.8,1.7,1.7,1.7h108.1c0.9,0,1.7-0.8,1.7-1.7v-78.9
		C-331.5,460.8-332.3,460.1-333.2,460.1z M-387.5,540.5l-2,0.4v-2.1l2-0.4V540.5z M-387.5,538l-2,0.4v-2l2-0.4V538z M-385,540
		l-2,0.4v-2l2-0.4V540z M-385,537.5l-2,0.4v-2l2-0.4V537.5z M-338.4,534.3h-97.8v-67.2h97.8V534.3L-338.4,534.3z M-399.5,493.1
		c-1.2,0-2.1,0.9-2.1,2.1v9.9c0,1.2,0.9,2.1,2.1,2.1s2.1-0.9,2.1-2.1v-9.9C-397.4,494.1-398.3,493.1-399.5,493.1z M-375.5,493.1
		c-1.2,0-2.1,0.9-2.1,2.1v9.9c0,1.2,0.9,2.1,2.1,2.1s2.1-0.9,2.1-2.1v-9.9C-373.4,494.1-374.3,493.1-375.5,493.1z M-379.7,493.1
		h-15.5c-0.4,0-0.7,0.3-0.7,0.7v11.3c0,1.7,1.2,3.1,2.8,3.5v5c0,1.2,0.9,2.1,2.1,2.1s2.1-0.9,2.1-2.1v-4.9h2.8v4.9
		c0,1.2,0.9,2.1,2.1,2.1s2.1-0.9,2.1-2.1v-5c1.6-0.3,2.8-1.8,2.8-3.5v-11.3C-379,493.4-379.3,493.1-379.7,493.1z M-382.4,484.8
		l1.7-1.7c0.3-0.3,0.3-0.7,0-1c-0.3-0.3-0.7-0.3-1,0c0,0,0,0,0,0l-2,2c-2.5-1.1-5.2-1.1-7.7,0l-2-2c-0.3-0.3-0.7-0.3-1,0
		c-0.3,0.3-0.3,0.7,0,1l1.7,1.7c-2.1,1.4-3.4,3.7-3.3,6.2c0,0.4,0.3,0.7,0.7,0.7h15.5c0.4,0,0.7-0.3,0.7-0.7
		C-379,488.5-380.3,486.1-382.4,484.8z M-391,487.5c0.4,0,0.7,0.3,0.7,0.7c0,0.4-0.3,0.7-0.7,0.7c-0.4,0-0.7-0.3-0.7-0.7
		C-391.7,487.8-391.4,487.5-391,487.5z M-384,487.5c0.4,0,0.7,0.3,0.7,0.7c0,0.4-0.3,0.7-0.7,0.7c-0.4,0-0.7-0.3-0.7-0.7
		C-384.7,487.8-384.4,487.5-384,487.5z"/>
</g>
</svg>
