<?xml version="1.0" encoding="utf-8"?>
<!-- Generator: Adobe Illustrator 19.1.0, SVG Export Plug-In . SVG Version: 6.00 Build 0)  -->
<svg version="1.1" xmlns="http://www.w3.org/2000/svg" xmlns:xlink="http://www.w3.org/1999/xlink" x="0px" y="0px"
	 viewBox="-443 445.5 111.5 111.5" style="enable-background:new -443 445.5 111.5 111.5;" xml:space="preserve">
<style type="text/css">
	.st0{display:none;}
	.st1{display:inline;}
	.st2{fill:#010002;}
	.st3{fill:#4CAF50;}
	.st4{fill:#FAFAFA;}
	.st5{fill:none;}
	.st6{font-family:'ArialMT';}
	.st7{font-size:12px;}
	.st8{font-size:7px;}
	.st9{fill:#FFFFFF;}
</style>
<g id="Capa_1" class="st0">
	<g class="st1">
		<path d="M-333.2,460.1h-108.1c-0.9,0-1.7,0.8-1.7,1.7v78.9c0,0.9,0.8,1.7,1.7,1.7h108.1c0.9,0,1.7-0.8,1.7-1.7v-78.9
			C-331.5,460.8-332.3,460.1-333.2,460.1z M-387.5,540.5l-2,0.4v-2.1l2-0.4V540.5z M-387.5,538l-2,0.4v-2l2-0.4V538z M-385,540
			l-2,0.4v-2l2-0.4V540z M-385,537.5l-2,0.4v-2l2-0.4V537.5z M-338.4,534.3h-97.8v-67.2h97.8V534.3L-338.4,534.3z M-399.5,493.1
			c-1.2,0-2.1,0.9-2.1,2.1v9.9c0,1.2,0.9,2.1,2.1,2.1s2.1-0.9,2.1-2.1v-9.9C-397.4,494.1-398.3,493.1-399.5,493.1z M-375.5,493.1
			c-1.2,0-2.1,0.9-2.1,2.1v9.9c0,1.2,0.9,2.1,2.1,2.1s2.1-0.9,2.1-2.1v-9.9C-373.4,494.1-374.3,493.1-375.5,493.1z M-379.7,493.1
			h-15.5c-0.4,0-0.7,0.3-0.7,0.7v11.3c0,1.7,1.2,3.1,2.8,3.5v5c0,1.2,0.9,2.1,2.1,2.1s2.1-0.9,2.1-2.1v-4.9h2.8v4.9
			c0,1.2,0.9,2.1,2.1,2.1s2.1-0.9,2.1-2.1v-5c1.6-0.3,2.8-1.8,2.8-3.5v-11.3C-379,493.4-379.3,493.1-379.7,493.1z M-382.4,484.8
			l1.7-1.7c0.3-0.3,0.3-0.7,0-1c-0.3-0.3-0.7-0.3-1,0c0,0,0,0,0,0l-2,2c-2.5-1.1-5.2-1.1-7.7,0l-2-2c-0.3-0.3-0.7-0.3-1,0
			c-0.3,0.3-0.3,0.7,0,1l1.7,1.7c-2.1,1.4-3.4,3.7-3.3,6.2c0,0.4,0.3,0.7,0.7,0.7h15.5c0.4,0,0.7-0.3,0.7-0.7
			C-379,488.5-380.3,486.1-382.4,484.8z M-391,487.5c0.4,0,0.7,0.3,0.7,0.7c0,0.4-0.3,0.7-0.7,0.7c-0.4,0-0.7-0.3-0.7-0.7
			C-391.7,487.8-391.4,487.5-391,487.5z M-384,487.5c0.4,0,0.7,0.3,0.7,0.7c0,0.4-0.3,0.7-0.7,0.7c-0.4,0-0.7-0.3-0.7-0.7
			C-384.7,487.8-384.4,487.5-384,487.5z"/>
	</g>
</g>
<g id="Layer_2">
	<g>
		<g>
			<path class="st2" d="M-342.3,521.9v-4.1v-24.4V469c0-2.2-1.8-4.1-4.1-4.1h-81.4c-2.2,0-4.1,1.8-4.1,4.1v24.4v24.4v4.1l-10.2,12.2
				c0,3.4,2.7,6.1,6.1,6.1h97.6c3.4,0,6.1-2.7,6.1-6.1L-342.3,521.9z M-378.9,538.2h-16.3c-0.6,0-1-0.5-1-1c0-0.6,0.5-1,1-1h16.3
				c0.6,0,1,0.5,1,1C-377.9,537.7-378.4,538.2-378.9,538.2z M-403.9,534.1l3.1-3.7h27.3l3.1,3.7H-403.9z M-348.1,514.7
				c0,2-1.6,3.6-3.5,3.6h-71c-1.9,0-3.5-1.6-3.5-3.6v-42.6c0-2,1.6-3.6,3.5-3.6h71c1.9,0,3.5,1.6,3.5,3.6V514.7z"/>
			<g>
				<path class="st3" d="M-400.4,487.2c-1.2,0-2.2,1-2.2,2.2v10.5c0,1.2,1,2.2,2.2,2.2s2.2-1,2.2-2.2v-10.5
					C-398.1,488.2-399.1,487.2-400.4,487.2z"/>
				<path class="st3" d="M-374.9,487.2c-1.2,0-2.2,1-2.2,2.2v10.5c0,1.2,1,2.2,2.2,2.2s2.2-1,2.2-2.2v-10.5
					C-372.7,488.2-373.7,487.2-374.9,487.2z"/>
				<path class="st3" d="M-379.4,487.2h-16.5c-0.4,0-0.7,0.3-0.7,0.7v12c0,1.8,1.3,3.3,3,3.7v5.3c0,1.2,1,2.2,2.2,2.2s2.2-1,2.2-2.2
					v-5.2h3v5.2c0,1.2,1,2.2,2.2,2.2c1.2,0,2.2-1,2.2-2.2v-5.3c1.7-0.4,3-1.9,3-3.7v-12C-378.7,487.5-379,487.2-379.4,487.2z"/>
				<path class="st3" d="M-382.2,478.3l1.8-1.8c0.3-0.3,0.3-0.8,0-1.1c-0.3-0.3-0.8-0.3-1.1,0c0,0,0,0,0,0l-2.1,2.1
					c-2.6-1.1-5.6-1.1-8.2,0l-2.1-2.1c-0.3-0.3-0.8-0.3-1.1,0c-0.3,0.3-0.3,0.7,0,1l1.8,1.8c-2.2,1.5-3.6,4-3.5,6.6
					c0,0.4,0.3,0.7,0.7,0.7h16.5c0.4,0,0.7-0.3,0.7-0.7C-378.7,482.3-380,479.8-382.2,478.3z"/>
			</g>
			<g>
				<circle class="st4" cx="-391.4" cy="481.9" r="0.7"/>
				<circle class="st4" cx="-383.9" cy="481.9" r="0.7"/>
			</g>
		</g>
	</g>
	<rect x="-373.8" y="506.5" class="st5" width="23.8" height="10.1"/>
	<text transform="matrix(1 0 0 1 -373.75 515.0918)" class="st6 st7">64</text>
	<rect x="-359.8" y="510" class="st5" width="10.9" height="6.6"/>
	<text transform="matrix(1 0 0 1 -359.75 515.0117)" class="st6 st8">bit</text>
	<rect x="-373.8" y="506.5" class="st5" width="23.8" height="10.1"/>
	<text transform="matrix(1 0 0 1 -373.75 515.0918)" class="st0 st6 st7">32</text>
	<g class="st0">
		<g class="st1">
			<g>
				<path d="M-411,483.8l0.4,0.7c0.1,0.2,0.4,0.3,0.6,0.1c0.2-0.1,0.3-0.4,0.1-0.6l-0.6-1l1-1.5l1.1,0.2c0.2,0,0.5-0.1,0.5-0.4
					s-0.1-0.5-0.4-0.5l-0.8-0.1c0.3-0.8,0-1.8-0.7-2.3l-0.6-0.4l-3.7,5.6l0.6,0.4C-412.6,484.6-411.6,484.5-411,483.8z"/>
			</g>
		</g>
		<g class="st1">
			<g>
				<path d="M-419.2,484.8l1.4-2.2l0.8,0.5c-0.5,1.2-0.1,2.7,1,3.5l0.5,0.3c0.2,0.1,0.5,0.1,0.6-0.1s0.1-0.5-0.1-0.6l-0.5-0.3
					c-0.8-0.5-1-1.4-0.8-2.2l0.3,0.2c0.3,0.2,0.8,0.1,1-0.2l1.8-2.8l-4.3-2.8c-0.2-0.1-0.3-0.4-0.1-0.6c0.1-0.2,0.4-0.3,0.6-0.1
					l4.3,2.8l1.8-2.8c0.2-0.3,0.1-0.8-0.2-1l-0.3-0.2c0.6-0.6,1.6-0.7,2.3-0.2l0.5,0.3c0.2,0.1,0.5,0.1,0.6-0.1s0.1-0.5-0.1-0.6
					l-0.5-0.3c-1.2-0.8-2.7-0.5-3.6,0.5l-0.8-0.5l1.4-2.2c0.1-0.2,0.1-0.5-0.1-0.6s-0.5-0.1-0.6,0.1l-1.4,2.2l-0.8-0.5
					c0.5-1.2,0.1-2.7-1-3.5l-0.5-0.3c-0.2-0.1-0.5-0.1-0.6,0.1s-0.1,0.5,0.1,0.6l0.5,0.3c0.8,0.5,1,1.4,0.8,2.2l-0.2-0.1
					c-2.1-1.4-4.9-0.8-6.3,1.3c-1.4,2.1-0.8,4.9,1.3,6.3l0.2,0.1c-0.6,0.6-1.6,0.7-2.3,0.2l-0.5-0.3c-0.2-0.1-0.5-0.1-0.6,0.1
					c-0.1,0.2-0.1,0.5,0.1,0.6l0.5,0.3c1.2,0.8,2.7,0.5,3.6-0.5l0.8,0.5l-1.4,2.2c-0.1,0.2-0.1,0.5,0.1,0.6
					C-419.6,485.1-419.3,485-419.2,484.8z"/>
			</g>
		</g>
		<g class="st1">
			<g>
				<path d="M-400.1,509.2l0.4-0.2c0.1,0,0.2-0.2,0.1-0.3c0-0.1-0.2-0.2-0.3-0.1l-0.5,0.2l-0.7-0.6l0.2-0.6c0-0.1,0-0.2-0.1-0.3
					s-0.2,0-0.3,0.1l-0.1,0.4c-0.4-0.2-0.9-0.2-1.2,0.2l-0.3,0.3l2.5,2.4l0.3-0.3C-399.8,510.1-399.8,509.6-400.1,509.2z"/>
			</g>
		</g>
		<g class="st1">
			<g>
				<path d="M-400.3,513.5l-1-0.9l0.3-0.3c0.6,0.4,1.3,0.3,1.8-0.2l0.2-0.2c0.1-0.1,0.1-0.2,0-0.3c-0.1-0.1-0.2-0.1-0.3,0l-0.2,0.2
					c-0.3,0.3-0.8,0.4-1.2,0.2l0.1-0.1c0.1-0.2,0.1-0.4,0-0.5l-1.3-1.2l-1.8,1.9c-0.1,0.1-0.2,0.1-0.3,0s-0.1-0.2,0-0.3l1.8-1.9
					l-1.3-1.2c-0.2-0.1-0.4-0.1-0.5,0l-0.1,0.1c-0.2-0.4-0.2-0.9,0.1-1.2l0.2-0.2c0.1-0.1,0.1-0.2,0-0.3c-0.1-0.1-0.2-0.1-0.3,0
					l-0.2,0.2c-0.5,0.5-0.5,1.3-0.1,1.8l-0.3,0.3l-1-0.9c-0.1-0.1-0.2-0.1-0.3,0s-0.1,0.2,0,0.3l1,0.9l-0.3,0.3
					c-0.6-0.4-1.3-0.3-1.8,0.2l-0.2,0.2c-0.1,0.1-0.1,0.2,0,0.3c0.1,0.1,0.2,0.1,0.3,0l0.2-0.2c0.3-0.3,0.8-0.4,1.2-0.2l-0.1,0.1
					c-0.9,0.9-0.8,2.4,0.1,3.3c0.9,0.9,2.4,0.8,3.3-0.1l0.1-0.1c0.2,0.4,0.2,0.9-0.1,1.2l-0.2,0.2c-0.1,0.1-0.1,0.2,0,0.3
					c0.1,0.1,0.2,0.1,0.3,0l0.2-0.2c0.5-0.5,0.5-1.3,0.1-1.8l0.3-0.3l1,0.9c0.1,0.1,0.2,0.1,0.3,0
					C-400.2,513.7-400.2,513.6-400.3,513.5z"/>
			</g>
		</g>
		<g class="st1">
			<g>
				<path d="M-353.4,482.9l-0.5,0.3c-0.2,0.1-0.2,0.3-0.1,0.4c0.1,0.2,0.3,0.2,0.4,0.1l0.7-0.4l1,0.8l-0.2,0.8
					c0,0.2,0.1,0.3,0.2,0.4c0.2,0,0.3-0.1,0.4-0.2l0.1-0.5c0.6,0.3,1.3,0.2,1.7-0.3l0.3-0.4l-3.7-3l-0.3,0.4
					C-353.8,481.7-353.8,482.4-353.4,482.9z"/>
			</g>
		</g>
		<g class="st1">
			<g>
				<path d="M-353.5,477.1l1.4,1.2l-0.4,0.5c-0.8-0.5-1.9-0.3-2.5,0.5l-0.3,0.3c-0.1,0.1-0.1,0.3,0,0.4c0.1,0.1,0.3,0.1,0.4,0
					l0.3-0.3c0.4-0.5,1.1-0.6,1.6-0.4l-0.2,0.2c-0.2,0.2-0.1,0.5,0.1,0.7l1.8,1.5l2.3-2.8c0.1-0.1,0.3-0.2,0.4,0
					c0.1,0.1,0.2,0.3,0,0.4l-2.3,2.8l1.8,1.5c0.2,0.2,0.5,0.1,0.7-0.1l0.2-0.2c0.4,0.5,0.4,1.2,0,1.7l-0.3,0.3
					c-0.1,0.1-0.1,0.3,0,0.4c0.1,0.1,0.3,0.1,0.4,0l0.3-0.3c0.6-0.8,0.6-1.8-0.1-2.5l0.4-0.5l1.4,1.2c0.1,0.1,0.3,0.1,0.4,0
					c0.1-0.1,0.1-0.3,0-0.4l-1.4-1.2l0.4-0.5c0.8,0.5,1.9,0.3,2.5-0.5l0.3-0.3c0.1-0.1,0.1-0.3,0-0.4c-0.1-0.1-0.3-0.1-0.4,0
					l-0.3,0.3c-0.4,0.5-1.1,0.6-1.6,0.4l0.1-0.1c1.1-1.4,0.9-3.4-0.5-4.5c-1.4-1.1-3.4-0.9-4.5,0.5l-0.1,0.1c-0.4-0.5-0.4-1.2,0-1.7
					l0.3-0.3c0.1-0.1,0.1-0.3,0-0.4s-0.3-0.1-0.4,0l-0.3,0.3c-0.6,0.8-0.6,1.8,0.1,2.5l-0.4,0.5l-1.4-1.2c-0.1-0.1-0.3-0.1-0.4,0
					C-353.7,476.8-353.6,477-353.5,477.1z"/>
			</g>
		</g>
	</g>
	<g>
		<rect x="-437.2" y="488" class="st9" width="51.8" height="38"/>
		<g>
			<path d="M-385.1,486.3h-52.8c-0.4,0-0.8,0.4-0.8,0.8v38.5c0,0.4,0.4,0.8,0.8,0.8h52.8c0.4,0,0.8-0.4,0.8-0.8v-38.5
				C-384.3,486.6-384.6,486.3-385.1,486.3z M-411.6,525.6l-1,0.2v-1l1-0.2V525.6z M-411.6,524.4l-1,0.2v-1l1-0.2V524.4z
				 M-410.4,525.3l-1,0.2v-1l1-0.2V525.3z M-410.4,524.1l-1,0.2v-1l1-0.2V524.1z M-387.6,522.6h-47.8v-32.8h47.8V522.6L-387.6,522.6
				z M-417.5,502.4c-0.6,0-1,0.4-1,1v4.8c0,0.6,0.4,1,1,1s1-0.4,1-1v-4.8C-416.4,502.9-416.9,502.4-417.5,502.4z M-405.7,502.4
				c-0.6,0-1,0.4-1,1v4.8c0,0.6,0.4,1,1,1s1-0.4,1-1v-4.8C-404.7,502.9-405.2,502.4-405.7,502.4z M-407.8,502.4h-7.6
				c-0.2,0-0.3,0.1-0.3,0.3v5.5c0,0.8,0.6,1.5,1.4,1.7v2.4c0,0.6,0.4,1,1,1c0.6,0,1-0.4,1-1V510h1.4v2.4c0,0.6,0.4,1,1,1s1-0.4,1-1
				V510c0.8-0.1,1.4-0.9,1.4-1.7v-5.5C-407.5,502.6-407.6,502.4-407.8,502.4z M-409.1,498.4l0.8-0.8c0.1-0.1,0.1-0.3,0-0.5
				c-0.1-0.1-0.3-0.1-0.5,0l0,0l-1,1c-1.2-0.5-2.5-0.5-3.8,0l-1-1c-0.1-0.1-0.3-0.1-0.5,0c-0.1,0.1-0.1,0.3,0,0.5l0.8,0.8
				c-1,0.7-1.7,1.8-1.6,3c0,0.2,0.1,0.3,0.3,0.3h7.6c0.2,0,0.3-0.1,0.3-0.3C-407.5,500.2-408.1,499-409.1,498.4z M-413.3,499.7
				c0.2,0,0.3,0.1,0.3,0.3s-0.1,0.3-0.3,0.3s-0.3-0.1-0.3-0.3S-413.5,499.7-413.3,499.7z M-409.9,499.7c0.2,0,0.3,0.1,0.3,0.3
				s-0.1,0.3-0.3,0.3s-0.3-0.1-0.3-0.3S-410.1,499.7-409.9,499.7z"/>
		</g>
	</g>
</g>
</svg>
