<?xml version="1.0" encoding="utf-8"?>
<!-- Generator: Adobe Illustrator 19.1.0, SVG Export Plug-In . SVG Version: 6.00 Build 0)  -->
<svg version="1.1" xmlns="http://www.w3.org/2000/svg" xmlns:xlink="http://www.w3.org/1999/xlink" x="0px" y="0px"
	 viewBox="-443 445.5 111.5 111.5" style="enable-background:new -443 445.5 111.5 111.5;" xml:space="preserve">
<style type="text/css">
	.st0{display:none;}
	.st1{display:inline;}
	.st2{fill:#010002;}
	.st3{fill:#4CAF50;}
	.st4{fill:#FAFAFA;}
</style>
<g id="Capa_1" class="st0">
	<g class="st1">
		<path d="M-333.2,460.1h-108.1c-0.9,0-1.7,0.8-1.7,1.7v78.9c0,0.9,0.8,1.7,1.7,1.7h108.1c0.9,0,1.7-0.8,1.7-1.7v-78.9
			C-331.5,460.8-332.3,460.1-333.2,460.1z M-387.5,540.5l-2,0.4v-2.1l2-0.4V540.5z M-387.5,538l-2,0.4v-2l2-0.4V538z M-385,540
			l-2,0.4v-2l2-0.4V540z M-385,537.5l-2,0.4v-2l2-0.4V537.5z M-338.4,534.3h-97.8v-67.2h97.8V534.3L-338.4,534.3z M-399.5,493.1
			c-1.2,0-2.1,0.9-2.1,2.1v9.9c0,1.2,0.9,2.1,2.1,2.1s2.1-0.9,2.1-2.1v-9.9C-397.4,494.1-398.3,493.1-399.5,493.1z M-375.5,493.1
			c-1.2,0-2.1,0.9-2.1,2.1v9.9c0,1.2,0.9,2.1,2.1,2.1s2.1-0.9,2.1-2.1v-9.9C-373.4,494.1-374.3,493.1-375.5,493.1z M-379.7,493.1
			h-15.5c-0.4,0-0.7,0.3-0.7,0.7v11.3c0,1.7,1.2,3.1,2.8,3.5v5c0,1.2,0.9,2.1,2.1,2.1s2.1-0.9,2.1-2.1v-4.9h2.8v4.9
			c0,1.2,0.9,2.1,2.1,2.1s2.1-0.9,2.1-2.1v-5c1.6-0.3,2.8-1.8,2.8-3.5v-11.3C-379,493.4-379.3,493.1-379.7,493.1z M-382.4,484.8
			l1.7-1.7c0.3-0.3,0.3-0.7,0-1c-0.3-0.3-0.7-0.3-1,0c0,0,0,0,0,0l-2,2c-2.5-1.1-5.2-1.1-7.7,0l-2-2c-0.3-0.3-0.7-0.3-1,0
			c-0.3,0.3-0.3,0.7,0,1l1.7,1.7c-2.1,1.4-3.4,3.7-3.3,6.2c0,0.4,0.3,0.7,0.7,0.7h15.5c0.4,0,0.7-0.3,0.7-0.7
			C-379,488.5-380.3,486.1-382.4,484.8z M-391,487.5c0.4,0,0.7,0.3,0.7,0.7c0,0.4-0.3,0.7-0.7,0.7c-0.4,0-0.7-0.3-0.7-0.7
			C-391.7,487.8-391.4,487.5-391,487.5z M-384,487.5c0.4,0,0.7,0.3,0.7,0.7c0,0.4-0.3,0.7-0.7,0.7c-0.4,0-0.7-0.3-0.7-0.7
			C-384.7,487.8-384.4,487.5-384,487.5z"/>
	</g>
</g>
<g id="Layer_2">
	<g>
		<g>
			<path class="st2" d="M-342.3,521.9v-4.1v-24.4V469c0-2.2-1.8-4.1-4.1-4.1h-81.4c-2.2,0-4.1,1.8-4.1,4.1v24.4v24.4v4.1l-10.2,12.2
				c0,3.4,2.7,6.1,6.1,6.1h97.6c3.4,0,6.1-2.7,6.1-6.1L-342.3,521.9z M-378.9,538.2h-16.3c-0.6,0-1-0.5-1-1c0-0.6,0.5-1,1-1h16.3
				c0.6,0,1,0.5,1,1C-377.9,537.7-378.4,538.2-378.9,538.2z M-403.9,534.1l3.1-3.7h27.3l3.1,3.7H-403.9z M-348.1,514.7
				c0,2-1.6,3.6-3.5,3.6h-71c-1.9,0-3.5-1.6-3.5-3.6v-42.6c0-2,1.6-3.6,3.5-3.6h71c1.9,0,3.5,1.6,3.5,3.6V514.7z"/>
			<g>
				<path class="st3" d="M-400.4,487.2c-1.2,0-2.2,1-2.2,2.2v10.5c0,1.2,1,2.2,2.2,2.2s2.2-1,2.2-2.2v-10.5
					C-398.1,488.2-399.1,487.2-400.4,487.2z"/>
				<path class="st3" d="M-374.9,487.2c-1.2,0-2.2,1-2.2,2.2v10.5c0,1.2,1,2.2,2.2,2.2s2.2-1,2.2-2.2v-10.5
					C-372.7,488.2-373.7,487.2-374.9,487.2z"/>
				<path class="st3" d="M-379.4,487.2h-16.5c-0.4,0-0.7,0.3-0.7,0.7v12c0,1.8,1.3,3.3,3,3.7v5.3c0,1.2,1,2.2,2.2,2.2s2.2-1,2.2-2.2
					v-5.2h3v5.2c0,1.2,1,2.2,2.2,2.2c1.2,0,2.2-1,2.2-2.2v-5.3c1.7-0.4,3-1.9,3-3.7v-12C-378.7,487.5-379,487.2-379.4,487.2z"/>
				<path class="st3" d="M-382.2,478.3l1.8-1.8c0.3-0.3,0.3-0.8,0-1.1c-0.3-0.3-0.8-0.3-1.1,0c0,0,0,0,0,0l-2.1,2.1
					c-2.6-1.1-5.6-1.1-8.2,0l-2.1-2.1c-0.3-0.3-0.8-0.3-1.1,0c-0.3,0.3-0.3,0.7,0,1l1.8,1.8c-2.2,1.5-3.6,4-3.5,6.6
					c0,0.4,0.3,0.7,0.7,0.7h16.5c0.4,0,0.7-0.3,0.7-0.7C-378.7,482.3-380,479.8-382.2,478.3z"/>
			</g>
			<g>
				<circle class="st4" cx="-391.4" cy="481.9" r="0.7"/>
				<circle class="st4" cx="-383.9" cy="481.9" r="0.7"/>
			</g>
		</g>
	</g>
</g>
</svg>
